<?xml version="1.0" encoding="utf-8"?>
<!-- Generator: Adobe Illustrator 19.1.0, SVG Export Plug-In . SVG Version: 6.00 Build 0)  -->
<svg version="1.1" id="Layer_1" xmlns="http://www.w3.org/2000/svg" xmlns:xlink="http://www.w3.org/1999/xlink" x="0px" y="0px"
	 viewBox="-591 277 48 34.3" style="enable-background:new -591 277 48 34.3;" xml:space="preserve">
<style type="text/css">
	.st0{fill:#dfc90b;}
</style>
<path class="st0" d="M-587.6,283.9h41.1c1.9,0,3.4-1.5,3.4-3.4c0-1.9-1.5-3.4-3.4-3.4h-41.1c-1.9,0-3.4,1.5-3.4,3.4
	C-591,282.3-589.5,283.9-587.6,283.9z M-546.4,290.7h-41.1c-1.9,0-3.4,1.5-3.4,3.4s1.5,3.4,3.4,3.4h41.1c1.9,0,3.4-1.5,3.4-3.4
	S-544.5,290.7-546.4,290.7z M-546.4,304.4h-41.1c-1.9,0-3.4,1.5-3.4,3.4s1.5,3.4,3.4,3.4h41.1c1.9,0,3.4-1.5,3.4-3.4
	S-544.5,304.4-546.4,304.4z"/>
</svg>
