<svg xmlns="http://www.w3.org/2000/svg" id="Layer_1" xmlns:xlink="http://www.w3.org/1999/xlink" viewBox="0 0 466.5 446">
  <style>
    .st0{fill:url(#SVGID_1_);} .st1{clip-path:url(#SVGID_3_);fill:url(#SVGID_4_);} .st2{fill:url(#SVGID_5_);} .st3{fill:url(#SVGID_6_);} .st4{fill:url(#SVGID_7_);} .st5{fill:#3F368B;} .st6{fill:#FFFFFF;} .st7{font-family:&apos;AvenirNext-Bold&apos;;} .st8{font-size:23px;}
  </style>
  <radialGradient id="SVGID_1_" cx="234.4242" cy="334.8694" r="131.8332" gradientUnits="userSpaceOnUse">
    <stop offset=".3451" stop-color="#FFF"/>
    <stop offset="1" stop-color="#8270A3"/>
  </radialGradient>
  <path d="M59.8 269.7h349.3s-34.5 134-175.2 130.3S59.8 269.7 59.8 269.7z" class="st0"/>
  <defs>
    <path id="SVGID_2_" d="M31.8 257.9h444.7v152.3H31.8z"/>
  </defs>
  <clipPath id="SVGID_3_">
    <use xlink:href="#SVGID_2_" overflow="visible"/>
  </clipPath>
  <radialGradient id="SVGID_4_" cx="604.6652" cy="237.2062" r="163.7455" gradientTransform="matrix(1.097 0 0 .876 .49 33.155)" gradientUnits="userSpaceOnUse">
    <stop offset=".555" stop-color="#FFF"/>
    <stop offset="1" stop-color="#8270A3"/>
  </radialGradient>
  <ellipse cx="663.9" cy="241" class="st1" rx="179.6" ry="143.5"/>
  <radialGradient id="SVGID_5_" cx="152.5909" cy="352.4165" r="103.2761" gradientUnits="userSpaceOnUse">
    <stop offset=".3451" stop-color="#FFF"/>
    <stop offset="1" stop-color="#FFF"/>
  </radialGradient>
  <path d="M42.8 439.2h2.5l2.8-1.8 1.2-3.8-3.2-3.3v-5s2.2-8.2 2.4-8.5c.2-.2 5.2-12.2 5.2-12.2l5.3-11.3 2.8-5.5 3.2 2.5 8.8 7.1 3.7 5.9 6.3 9.3 3.8 8.3 2 8.8 3.5 3.8 4.5-1 2-4-.8-6.9-2.2-7.1-5.3-8.8 3.7-1.2 4.7 1.3 7.3-1.7 6.7-4.1h2l3.8 1.9 5-1 3.8-6 6.3-5.5 5.8-6.3v7.5s1 4.5 1.5 4.7 3.7 1.9 3.7 1.9l4.3-3.4 4.2-5.5 5-5.2v6.7l2.5 4.8 3.2 1.2 6-.7 5.3-2.8 3.3-4.2 3.2-3.7 2.7-4.3 3-4 1.8 3.2.5 5.2-1.5 3.8-5.8 2.8-1 2.7.3 3.4 3.8 2.8 5.8-1.4 4.5-1.4 1.5-4.4 3-4.7 4.3 4.2 3.2 4 5.6-1.3 8-4 4.5-3.3 2.8 2 4.7 2.2 5-1 4.3-4.2 3.2-4.4 2.3-4.5 3.8-4.7 2.2-4.5 1.7-2.5 2 4.7.8 4-.8 4.5-2.3 1.8-5.3 4.7v4.3l2.8 1.2h4.2l6.9-2.2 3.6-4.5 1.3-7.2-1.3-9.2-3.6-8.8-4.4-7.7-4.5-5.2-4.2.7-2.2 4-2 6.7-3.5 1.5-1.2-7.7-4.3-3.5-4.5 2.2-10.4 7.8-5.2 6-6 7-4.4 6.3-3.3 7-3 1-1.7-3.5-1.3-11.5-3.5-9.2-3.2-3.3-2.8-.2-3.2 2.7-6.2 8.8-2.8 4.8-3 3.8-4 3.3-1.3-6.2.3-5-1.5-4-5-2-5.2 2.7-4.8 3.8-3-4.5-3.5-3.7-3.7 2.5-3.8 4-6.8 5.2-1.7-5.8-2.5-5.3-6.2-.2-7.2 4.5-7.8 8.2-5.6 4.2-3.4 6.9-3.2 4.9-1.3 6.5-1.2 3.2-2.7 1-5.2-6.7-7.2-8.9-8.2-6.4-2.5-3.3 6.2-7.3 7.3-9.5 5.5-6.7 4.8-5.5 5.2-6.7 3.8-4.2 4.8-5.3 4.8-6.5 4-4.3 3.3-5.3 4.2-3.8 3.5-4.5 3.8-4.7 5.3-5.8 1.8-4.3.8-3.3-1.5-2.8-3-.8h-2.5l-3.7 4-5 6.2-6.5 7-5.7 7.5-5 6.8-8.3 9-4 3.5-2.2-1-2.2-3.2 2.2-9.8 2-6 3.8-9.7 3.5-11 3.4-7.7 2.1-9.5-2.1-5.8h-4.1l-3.3 3.5-2 5.3-2.2 10.3-3.5 5.8-4.8 13.2-4 9.2-4.5 17.2-2.3 5.5-3.2 7.3-3.3 8.5-2.5 7.8-1.7 5.5-5.2 9.8-1.2 3.5-.8 3.2-2.3 5.3-2.3 7.1-4.2 9.7-5.8 10.5-1.5 6-1.3 7v5.2l2 3.2 6.3 3.8z" class="st2"/>
  <radialGradient id="SVGID_6_" cx="333.4239" cy="327.5356" r="65.0152" gradientTransform="matrix(1 0 0 1.252 0 -82.523)" gradientUnits="userSpaceOnUse">
    <stop offset=".3451" stop-color="#FFF"/>
    <stop offset="1" stop-color="#FFF"/>
  </radialGradient>
  <path d="M280.4 354.5l4.8-11.3 6.6-10.7s8.1-16.5 9.1-17 12.2-14 12.2-14l14.7-18.3 10.5-10.3 10-9.3 6-5 6.8-3.5h6l2.8 4.8 2.2 8.8-2.8 8-5.8 14-3.3 8.3-1.7 3.5 2.2.7 4.5-3.8 7-4.8 6.3-2.8s4.7-.7 5.2-.7 5.5 2 5.5 2l.8 3.8-2.8 4.5-6.7 6.5-5 4.8-5.3 2.2-5-1.8-2.7-4.5-2.7-3.8-2.5-1.2-4.3 6.3-6.2 7.8-7.8 7.2-4.7 1.3-3.7-3.2 1.8-4.8 5-4.5 5.3-8 5.5-7.5 3.9-6.7 4.5-9.2 2.2-6.8 1.6-5.8.2-.7-2.5.2-4.3 4-5.5 5.2-11.5 10.8-11.3 13.2-13.9 16.6-17 25.8-6.9 18.2v8l-1.3 7.5 5.4 7.2 7.9 3.2 8-.7 6-.7s8.1-3.5 8.5-3.7c.5-.2 5.8-3.3 6.3-3.2.5.2 3.8 2.2 3.8 2.2l1.2 4.7-4.5 3.3-13.9 6.8-15.6 2.4-13.5-5.2-7.3-9.3-1.8-12.5 1-11.5 2.5-7z" class="st3"/>
  <radialGradient id="SVGID_7_" cx="388.5074" cy="360.4136" r="69.2381" gradientTransform="matrix(1 0 0 1.252 0 -90.806)" gradientUnits="userSpaceOnUse">
    <stop offset=".3451" stop-color="#FFF"/>
    <stop offset="1" stop-color="#FFF"/>
  </radialGradient>
  <path d="M387.3 338.5l-2.3 5.2-3.8 5.7-5.5 6.8 5.3-3.7 6.7-4.1 3.3-2.8 5-3.7 4.8-2.5h4.5l3.8 3.2 3.8-1.5 3.2-3.3 2 1.3 3.7 1.8v5l-2.8 6.6-1.7 6.9v6.5l1.7 4.3 2.8 6.7 2.5 7.2 1 8.3v7.7l-2.5 8.2-3 8.3-3.3 5.7-4 5-6 5-4.8 3.5-9.3 5.3-8 2.2h-8.7l-7.8-1.3-6.5-2.8-4.2-4.5-2.8-6.2-1.8-9.2 1.8-13.3 2-8.3 3.2-5.2 4-5.9 3.3-2.8 4.5 1.7.7 4.2-2.5 5.3-4.2 7.7-2.2 7.7-.8 6.4.5 6.7 3.3 5.1 5.2 4.5 4.8.3s5.3.2 5.8.3c.5.2 5.7-.7 5.7-.7l5.7-2.7 4.2-3.2 3.7-2.8 3.3-4 4.7-5 3.5-6.2 1.7-5.2s1.2-5.8 1.3-6.3c.2-.5-.2-6.2-.2-6.2l-2.2-9.2-3-7.2-1.2-5.8-1.5-2-3.7 3-4.7 1.3-5.5 1.3-4.9-1.3-.9-2.8-.3-6-3.5.3-4.8 3.2-7.3 3.2-4.7 2-4.5-.2-2.7.2-7.7 3.3-7 1.7-7-.8-2-4.3v-5.5l2.3-6.5 3.2-6.9 3.7-5.6 3.5-5.5 3-6.5 4.3-3.7h2.7l2 1.5 1 2.2.3 3.5-3 3.8-2.8 6.2-5 8.2-2.7 5.2-.8 3.8 5.8-2 6.3-4.2 4.3-4.2 4.7-5.2s1.5-4 2-4.5 3-5.8 3-5.8l-3.5-1.5-5.7-1-1.8-4 1-2.8 7-2.8h6.2l4.8-2.5 3.7-5 3-7 3.5-6.7s3.5-8.3 3.8-9c.3-.7 3.2-7 3.2-7l1.8-4.7s2.3-5.3 2.8-5.7c.5-.3 2.5-2.5 2.5-2.5l4.5 1.8 2 2.7-1.3 4.2-3.3 9-3.7 8.8-4.3 8.8-3.2 7.3-.7 2.3 4.8-1 10.8-1.5 11.3-1.7 9.8-2.2 5.2.8 2 2.5-.7 4.5-6.3 2.2-11.5 3.2-10.3 1.2-12.3 2.5-7.2 1.1-3.8 1.6-1.1 3z" class="st4"/>
  <path d="M209 8V0h-16.8c-9.3 0-17.1.3-17.4.6-.3.3-.6 2.1-.6 4V8H209zm257.5 207.5l-2.3-48.1c-1.9-1.9-2.9-2.1-15.2-2.5l-13.1-.4-.3-3.8c-.2-3.4-.5-3.8-2.5-3.8H431V85.6h-6.2V157h-7.2V85.6h-6.2V157h-6.2V85.6h-6.3V157h-7.2V85.6h-6.2v35.7c0 35 0 35.7-1.8 35.7-1.7 0-1.8-.6-1.8-14.3v-14.3h-12.4V56.2h-23l-.3-7.4-.3-7.4h-6l.2-6c.2-5.9.1-6-2.1-6-2 0-2.3-.4-2.3-3 0-1.9-.5-3.2-1.3-3.5-.7-.3-1.4-1.6-1.4-3 0-1.3-.4-3.3-.8-4.3-.6-1.5-.9-1.1-1.4 2.1-.4 2.1-1.2 4.4-1.9 5.1-.7.7-1.2 2.5-1.2 4 0 2.1-.4 2.7-1.7 2.7-1.5 0-1.8.7-2 6l-.3 6h-6.2l-.2 29.6-.2 29.6h-29.4V47.2h-33.2l-.2 26.1-.3 26.1-4.3.3-4.3.3.1 17.1.1 17.1-13 .3-13 .3V47.2h-33V74c0 23.2-.2 26.7-1.3 26.7-1.2 0-1.3-3.7-1.3-28.1v-28h23.2V8.9h-20.5c-15.8 0-20.6.3-20.9 1.1-.2.6-.3 21.3-.2 45.9l.2 44.8h-28V56.2h-33l-.3 35.8-.2 35.9-6.5.3-6.5.3v28.4l-4.2-.1c-2.3 0-3.8-.3-3.2-.5 1.8-.7 1.4-8.3-.4-9.8-1.4-1.1-1.4-1.2 0-2.3 2.1-1.6 2.2-9.1.2-11.1-1.3-1.3-1.3-1.5 0-2.5 1.9-1.4 2-8.9.2-9.6-1.5-.6-1.3-3.4.2-3.9 1.6-.5 1.4-8.8-.2-9.4-1.4-.5-1-4.2.4-4.2s1-8.7-.4-9.2c-1.5-.6-1.3-3.4.2-3.9 1.6-.5 1.4-8.8-.2-9.4-1.5-.6-1.3-3.5.2-4 1.6-.5 1.4-8.8-.2-9.4-1.5-.6-1.3-3.5.2-4 1.2-.4 1.5-9.1.3-9.1-1.4 0-1.8-3.6-.4-4.2 1.5-.6 1.8-9.2.4-9.2-.5 0-.9-.8-.9-1.8s.4-1.8.9-1.8.9-2.2.9-4.9v-4.9l-16.7.2-16.7.2-.3 4.2c-.2 3.2.1 4.4 1.2 4.8 1.8.7 1.8 3.6 0 4.3-1.9.7-1.9 8.2 0 8.9 1.7.7 1.7 3.8 0 4.5-1.9.7-1.9 8.2 0 8.9 1.7.6 1.7 3.2 0 3.8-1.9.7-1.9 8.8 0 9.6 1.7.6 1.7 3.2 0 3.8-.9.4-1.3 1.8-1.3 4.9 0 3.3.3 4.4 1.3 4.4 1.8 0 1.8 3.4 0 4.1-.9.3-1.3 1.8-1.3 4.5s.4 4.1 1.3 4.5c1.8.7 1.8 4.8 0 4.8-1 0-1.3 1.1-1.3 4.5s.3 4.5 1.3 4.5c1.8 0 1.8 3.5 0 4.1-1.9.7-1.9 9.2 0 9.2 1.8 0 1.8 3.2 0 3.9-.9.3-1.3 1.7-1.3 4.1v3.6H38.1v23.2H10c-1.6-.2-2.9-.2-4.1 0h-.3l-.1-.2c-7.7 1.6-5.1 11.8-5.1 11.8v40.1c0 27.6.3 47.8.9 49.1 1.4 3.6 5.2 5 14 5h7.8l4.9 15c7.1 21.7 19.4 45.5 31.3 60.7l3.7 4.7-2.9 7.7c-1.6 4.3-4.3 10-6 12.8-1.8 2.9-2.9 5.7-2.6 6.5.5 1.4-4 12.1-12.4 29.4-6.8 13.9-8 22-4.3 27.9 2.9 4.5 10.4 7 13.8 4.4 4-3.1 4.1-8.2.2-11.3-2.1-1.6-2.1-2-1.2-5.1.6-1.9 3-7.4 5.4-12.4 2.4-5 5.6-11.7 7.1-15.1l2.7-6.1 6.6 6.6c10.3 10.3 18.3 24.6 18.3 32.9 0 1.3.6 3.3 1.4 4.4 1.9 2.7 7.7 2.7 10.4 0 1.6-1.6 1.8-2.6 1.3-7.8-.5-5.2-2.1-11.4-4.6-17.2-.7-1.5-.5-1.6 1.9-1.1 3 .6 10.1-1.5 13.8-4.1 1.9-1.3 2.8-1.5 4.2-.8 1 .5 2.6.9 3.5.9 1 0 5.2 2 9.5 4.5s8.1 4.5 8.4 4.5c.4 0 4.9 2 9.9 4.3 15.1 7.1 38.5 13.7 58.6 16.6 8.1 1.2 14.9 1.4 33 1.1 27-.5 36.1-1.9 60.8-9.3 15.7-4.7 32.7-12.3 46-20.5 3.5-2.1 6.5-3.9 6.7-3.9.2 0-.3 2.8-1.2 6.1-4.3 16.5.8 29.4 14.1 35.9 5.4 2.7 6.7 2.9 13.6 2.9 9 0 14.9-2 23.3-7.6 9.7-6.5 17-15.7 21.6-26.9 2.7-6.8 2.9-8 2.9-17.6 0-10.1-.1-10.4-3.8-19-4.6-10.6-4.9-15.3-1.6-24.2 1.2-3.2 2.2-7.1 2.2-8.6 0-2.6-2.6-6.2-4.5-6.2-.5 0-.3-1.2.6-2.6 1-1.7 2.5-2.8 4.3-3.2 12.3-2.3 15.5-3.3 17.4-5.4 1.6-1.7 1.9-2.8 1.4-5.3-.8-4.2-3.8-6.2-8.6-5.5-3.1.4-3.5.3-2.9-1.1 6.1-14.6 12.8-32.8 13.7-37.3l1-4.7h6.7c8.4 0 11.5-1.5 12.8-6.1.9-2.1 1.1-17.7 1-49.3zM378.8 131c.9 0 1.3.8 1.3 2.2 0 1.4-.5 2.2-1.3 2.2-.9 0-1.3-.8-1.3-2.2 0-1.4.5-2.2 1.3-2.2zm0 6.3c.9 0 1.3.8 1.3 2.2s-.5 2.2-1.3 2.2c-.9 0-1.3-.8-1.3-2.2s.5-2.2 1.3-2.2zm-14.9-47.1c-.5-.5-.6-1.3-.3-1.9.8-1.3 3.3-1 3.8.5s-2.3 2.6-3.5 1.4zm0 6.3c-1.4-1.4-.3-3.6 1.6-3.3.8.1 1.6.9 1.7 1.7.4 1.8-1.9 2.9-3.3 1.6zm0 11.5c-1.4-1.4-.3-3.6 1.6-3.3.8.1 1.6.9 1.7 1.7.4 1.9-1.9 3-3.3 1.6zm-.5-30.8c-.2-1.2.2-1.5 1.8-1.3 1.2.2 2.1.9 2.1 1.6-.1 2-3.6 1.7-3.9-.3zm3.8 6.1c0 .9-.7 1.8-1.5 1.9-1.9.3-2.8-1-2.1-2.8.7-1.9 3.6-1.2 3.6.9zm-2-25.2c1.1.1 2 .9 2 1.6 0 .7-.9 1.5-2 1.6-1.5.2-2-.2-2-1.6 0-1.4.5-1.8 2-1.6zm2 7.9c0 1.9-3.5 1.6-3.9-.4-.2-1.2.2-1.5 1.8-1.3 1.2.2 2.1.9 2.1 1.7zm-3.3 4.1c1-1 3.4-.2 3.4 1.2 0 .8-.9 1.5-2.1 1.6-2 .3-2.8-1.4-1.3-2.8zm0 29.4c1-1 3.4-.2 3.4 1.2 0 .8-.9 1.5-2.1 1.6-2 .3-2.8-1.4-1.3-2.8zm0 11.6c1-1 3.4-.2 3.4 1.2 0 .8-.9 1.5-2.1 1.6-2 .3-2.8-1.4-1.3-2.8zm3.3 7.5c0 1.9-3.5 1.6-3.9-.4-.2-1.2.2-1.5 1.8-1.3 1.2.2 2.1.9 2.1 1.7zm-3.3 4.1c1-1 3.4-.2 3.4 1.2 0 .8-.9 1.5-2.1 1.6-2 .3-2.8-1.4-1.3-2.8zm3.3 7.4c0 .7-.9 1.5-2 1.6-1.5.2-2-.2-2-1.6 0-1.4.5-1.8 2-1.6 1.1.2 2 .9 2 1.6zm-3.3 4.1c1-1 3.4-.2 3.4 1.2 0 .8-.9 1.5-2.1 1.6-2 .4-2.8-1.3-1.3-2.8zm3.3 7.5c0 .7-.9 1.5-2 1.6-1.5.2-2-.2-2-1.6 0-1.4.5-1.8 2-1.6 1.1.2 2 .9 2 1.6zm-3.3 4.1c1-1 3.4-.2 3.4 1.2 0 .8-.9 1.5-2.1 1.6-2 .4-2.8-1.3-1.3-2.8zm1.3 9.1c-1.5.2-2-.2-2-1.6 0-1.4.5-1.8 2-1.6 1.1.1 2 .9 2 1.6 0 .7-.9 1.5-2 1.6zm1.7 3.3c0 .5-.8 1-1.8 1.2-1.8.3-2.5-.7-1.3-1.9.9-.9 3.1-.3 3.1.7zm-7.1-100.3c1 0 1.6.6 1.6 1.8 0 2.1-3.1 2.5-3.8.5-.6-1.5.1-2.3 2.2-2.3zm-.1 6.3c1.2 0 1.8.6 1.8 1.8 0 1.9-3 2.5-4 .9-.9-1.4.2-2.7 2.2-2.7zm1.8 7.1c0 2.1-3.1 2.5-3.8.5-.6-1.6.1-2.3 2.2-2.3 1 0 1.6.7 1.6 1.8zm-1.8 4.5c1.2 0 1.8.6 1.8 1.8 0 1.9-3 2.5-4 .9-.9-1.4.2-2.7 2.2-2.7zm1.6 7.4c-.3 2.3-3.8 2.9-3.9.6-.1-2.1.5-2.7 2.4-2.7 1.3 0 1.7.6 1.5 2.1zm-1.6 4.2c1.2 0 1.8.6 1.8 1.8 0 1.9-3 2.5-4 .9-.9-1.4.2-2.7 2.2-2.7zm-.2 9.6c-1.9-.3-2.7-1.8-1.9-3.5.7-1.4 3.5 0 3.8 1.9.2 1.6-.1 1.9-1.9 1.6zm.2 1.9c1.2 0 1.8.6 1.8 1.8 0 1.9-3 2.5-4 .9-.9-1.3.2-2.7 2.2-2.7zm-.2 9.7c-1.9-.3-2.7-1.8-1.9-3.5.7-1.4 3.5 0 3.8 1.9.2 1.6-.1 1.9-1.9 1.6zm.2 1.9c1.2 0 1.8.6 1.8 1.8 0 1.9-3 2.5-4 .9-.9-1.3.2-2.7 2.2-2.7zm-2.3 43.7c-.8-1.3.3-2.7 2.3-2.7 1.2 0 1.8.6 1.8 1.8 0 1.9-3.1 2.6-4.1.9zm4.1 4c0 1.4-3.1 1.9-3.9.5-.6-1.1.4-1.9 2.3-1.9.8.1 1.6.7 1.6 1.4zm-3.9-10.6c-.6-1.6.1-2.3 2.2-2.3 1 0 1.6.6 1.6 1.8.1 2-3 2.5-3.8.5zm-.2-5c-.8-1.3.3-2.7 2.3-2.7 1.2 0 1.8.6 1.8 1.8 0 1.9-3.1 2.6-4.1.9zm.2-6.6c-.6-1.6.1-2.3 2.2-2.3 1 0 1.6.6 1.6 1.8.1 2-3 2.5-3.8.5zm2.2-4.1c-2.1 0-2.8-.7-2.2-2.3.7-1.9 3.8-1.5 3.8.5.1 1.2-.5 1.8-1.6 1.8zm1.7-13.3c0 1.2-.6 1.8-1.6 1.8-2.1 0-2.8-.7-2.2-2.3.7-2 3.8-1.6 3.8.5zm-4.1 4.4c.9-1.4 3.5-.6 3.8 1.2.2 1.1-.3 1.5-1.5 1.5-2 0-3.1-1.3-2.3-2.7zm-3.5-65.1c1.6 0 2.2.5 2.2 1.8s-.6 1.8-2.2 1.8-2.2-.5-2.2-1.8c-.1-1.3.6-1.8 2.2-1.8zm0 97.2c-1.6 0-2.2-.5-2.2-1.8s.6-1.8 2.2-1.8 2.2.5 2.2 1.8-.6 1.8-2.2 1.8zm.1 4.5c-2.3 0-3-.8-1.7-2.1 1-.9 3.2-.3 3.7 1 .1.7-.6 1.1-2 1.1zm-.1-10.7c-1.6 0-2.2-.5-2.2-1.8s.6-1.8 2.2-1.8 2.2.5 2.2 1.8-.6 1.8-2.2 1.8zm0-5.4c-1.6 0-2.2-.5-2.2-1.8s.6-1.8 2.2-1.8 2.2.5 2.2 1.8-.6 1.8-2.2 1.8zm-2.3-8c0-1.4.5-1.8 2-1.6 1.1.1 2.1 1 2.3 1.8.2 1.2-.3 1.6-2 1.6s-2.3-.5-2.3-1.8zm2.3-3.6c-1.6 0-2.2-.5-2.2-1.8s.6-1.8 2.2-1.8 2.2.5 2.2 1.8-.6 1.8-2.2 1.8zm-1.5-23.9c-1.3-1.3-.2-3.6 1.7-3.3.9.1 1.7.9 1.9 1.7.3 1.8-2.3 3-3.6 1.6zm0-11.5c-1.3-1.3-.2-3.6 1.7-3.3.9.1 1.7.9 1.9 1.7.3 1.7-2.3 2.9-3.6 1.6zm3.7 22.1c0 1.3-.6 1.8-2.2 1.8s-2.2-.5-2.2-1.8.6-1.8 2.2-1.8 2.2.5 2.2 1.8zm-2.2-27.7c-1.6 0-2.2-.5-2.2-1.8s.6-1.8 2.2-1.8 2.2.5 2.2 1.8-.6 1.8-2.2 1.8zm0-12c-1 0-1.9-.7-2.1-1.6-.2-1.1.4-1.6 2.1-1.6 1.7 0 2.2.4 2 1.6-.1.9-1 1.6-2 1.6zm1.8 4.4c0 .9-.7 1.8-1.5 1.9-1.9.3-2.8-1-2.1-2.8.6-1.9 3.6-1.2 3.6.9zm.2-17.6c-.1.9-1.1 1.6-2 1.6-1 0-1.9-.7-2.1-1.6-.2-1.1.4-1.6 2.1-1.6 1.7.1 2.2.5 2 1.6zm-3.6 4.4c1.1-1.1 3.3-.2 3.6 1.4.2 1.2-.3 1.6-2 1.6-2.2 0-3-1.6-1.6-3zm0 29.4c1.1-1.1 3.3-.2 3.6 1.4.2 1.2-.3 1.6-2 1.6-2.2 0-3-1.6-1.6-3zm0 11.6c1.1-1.1 3.3-.2 3.6 1.4.2 1.2-.3 1.6-2 1.6-2.2 0-3-1.6-1.6-3zm0 11.6c1.1-1.1 3.3-.2 3.6 1.4.2 1.2-.3 1.6-2 1.6-2.2 0-3-1.6-1.6-3zm-38.1-9.9c0 4.9-.2 5.8-1.5 5.6-1.2-.2-1.5-1.4-1.4-5.4 0-2.9.1-5.3.1-5.6 0-.2.7-.4 1.4-.4 1.1 0 1.4 1.2 1.4 5.8zm-1.5 29.7c-1.1-.2-1.5-1.3-1.4-4.9 0-2.6.1-4.9.1-5.1 0-.2.7-.4 1.4-.4 1 0 1.3 1.2 1.3 5.4.1 4.4-.1 5.2-1.4 5zm1.3 6.6c-.2 3.3-.6 4.7-1.5 4.7s-1.2-1.2-1.2-4.3c.1-5.3 0-5.1 1.6-5.1 1.1 0 1.3.9 1.1 4.7zm-1.3-18.2c-1.2-.2-1.5-1.4-1.4-5.4 0-2.9.1-5.3.1-5.6 0-.2.7-.4 1.4-.4 1.1 0 1.3 1.2 1.3 5.8.1 4.9-.1 5.8-1.4 5.6zm-10.5-27.1c8.4 0 11.9.1 7.8.3-4 .2-10.9.2-15.2 0-4.3-.2-1-.3 7.4-.3zm2.2 38.8c-1.6 0-1.8-.6-1.8-5.3s.2-5.3 1.8-5.3 1.8.6 1.8 5.3-.2 5.3-1.8 5.3zm1.6 6.5c-.2 3.5-.6 4.7-1.6 4.7s-1.4-1.2-1.6-4.7c-.2-4.3-.1-4.7 1.6-4.7 1.7 0 1.9.4 1.6 4.7zm-1.4-18.2c-1.2-.2-1.6-1.4-1.8-5.8-.2-5.1-.1-5.6 1.6-5.6 1.6 0 1.8.6 1.8 5.8 0 5.1-.2 5.8-1.6 5.6zm0-12.5c-1.2-.2-1.6-1.4-1.8-5.8-.2-5.1-.1-5.6 1.6-5.6 1.6 0 1.8.6 1.8 5.8 0 5.1-.2 5.8-1.6 5.6zm-7.8 23.8c-1.3 0-1.6-.8-1.5-4.7 0-2.6.1-4.9.1-5.2 0-.3.7-.4 1.5-.2 1.1.2 1.5 1.3 1.5 5.2 0 4.1-.2 4.9-1.6 4.9zm1.6 7.1c0 3.7-.3 4.5-1.6 4.5s-1.6-.8-1.5-4.2c0-2.3.1-4.5.1-4.7 0-.3.7-.4 1.5-.2 1.2.1 1.5 1.2 1.5 4.6zm-1.6-42.3c.8 0 1.3 1.7 1.5 5.4.3 5.2-.5 7.1-2.5 5.9-1.3-.8-.3-11.3 1-11.3zm.1 23.6c-1.3 0-1.6-.8-1.5-5.1 0-2.9.1-5.3.1-5.6 0-.3.7-.4 1.5-.2 1.2.2 1.5 1.4 1.5 5.6-.1 4.4-.3 5.3-1.6 5.3zm-8.1-23.6c1 0 1.3 1.2 1.3 5.8 0 4.5-.3 5.8-1.3 5.8s-1.3-1.2-1.3-5.8.3-5.8 1.3-5.8zm0 12.5c1 0 1.3 1.2 1.3 5.8 0 4.5-.3 5.8-1.3 5.8s-1.3-1.2-1.3-5.8.3-5.8 1.3-5.8zm0 12.4c1 0 1.3 1.2 1.3 5.3 0 4.2-.3 5.3-1.3 5.3s-1.3-1.2-1.3-5.3.3-5.3 1.3-5.3zm1.2 17c-.4 6-2 6.1-2.3.2-.2-3.7 0-4.6 1.2-4.6 1-.1 1.3.8 1.1 4.4zm-6.3-96c.2 2.9 0 3.3-1.5 3.3s-1.8-.5-1.8-2.9c-.1-5.4 2.9-5.7 3.3-.4zm-1.6 5c1.4 0 1.8.6 1.8 3.1s-.4 3.1-1.8 3.1-1.8-.6-1.8-3.1c0-2.4.4-3.1 1.8-3.1zm0 8.1c1.4 0 1.8.6 1.8 2.7s-.4 2.7-1.8 2.7-1.8-.6-1.8-2.7.4-2.7 1.8-2.7zm0 8c1.4 0 1.8.6 1.8 2.7s-.4 2.7-1.8 2.7-1.8-.6-1.8-2.7.4-2.7 1.8-2.7zm0 7.1c1.4 0 1.8.6 1.8 3.1s-.4 3.1-1.8 3.1-1.8-.6-1.8-3.1.4-3.1 1.8-3.1zm0 8c1.4 0 1.8.6 1.8 2.7s-.4 2.7-1.8 2.7-1.8-.6-1.8-2.7.4-2.7 1.8-2.7zm0 8.1c1 0 1.8.6 1.8 1.3 0 .7-.8 1.3-1.8 1.3s-1.8-.6-1.8-1.3c0-.7.8-1.3 1.8-1.3zm.9 52.6c-.5 0-.9-1.6-.9-3.6s.4-3.6.9-3.6.9 1.6.9 3.6-.4 3.6-.9 3.6zm.9 8.9c0 2.1-.4 3.4-.9 3.1-.5-.3-.9-1.9-.9-3.6 0-1.7.4-3.1.9-3.1s.9 1.7.9 3.6zm-.9-22.3c-.5 0-.9-1.4-.9-3.1 0-1.7.4-3.1.9-3.1s.9 1.4.9 3.1c0 1.7-.4 3.1-.9 3.1zm0-12.5c-.5 0-.9-1.6-.9-3.6s.4-3.6.9-3.6.9 1.6.9 3.6-.4 3.6-.9 3.6zm0-12.5c-.5 0-.9-1.6-.9-3.6s.4-3.6.9-3.6.9 1.6.9 3.6-.4 3.6-.9 3.6zm-2.7-7.1c.5 0 .9 1.6.9 3.6s-.4 3.6-.9 3.6-.9-1.6-.9-3.6.4-3.6.9-3.6zm0 12.9c.5.3.9 1.9.9 3.6 0 1.7-.4 3.1-.9 3.1s-.9-1.6-.9-3.6c0-2.1.4-3.4.9-3.1zm0 12.5c.5.3.9 1.9.9 3.6 0 1.7-.4 3.3-.9 3.6-.5.3-.9-1.1-.9-3.6s.4-3.9.9-3.6zm0 12.9c.5 0 .9 1.4.9 3.1 0 1.7-.4 3.3-.9 3.6-.5.3-.9-.9-.9-3.1 0-1.9.4-3.6.9-3.6zm0 12.5c.5 0 .9 1.4.9 3.1 0 1.7-.4 3.1-.9 3.1s-.9-1.4-.9-3.1c0-1.7.4-3.1.9-3.1zm-5.6-102.2c.1-3.7.1-3.7 1.8-3.4 1.2.2 1.6 1 1.6 3.2 0 2.4-.4 3-1.7 3-1.4 0-1.8-.6-1.7-2.8zm1.8 5.2c1.1.2 1.6 1.1 1.6 3 0 2.1-.4 2.7-1.7 2.7-1.3 0-1.7-.6-1.7-2.5.1-3.5.1-3.5 1.8-3.2zm-1.9 10.7c.2-3 .2-3 1.9-2.7 1 .2 1.7 1.3 1.9 2.8.2 2.2 0 2.5-1.8 2.2-1.5-.1-2-.8-2-2.3zm2.3 5.2c1.2 0 1.7.6 1.7 2.1 0 2.4-1.3 3.6-3 2.9-1.9-.7-.8-5 1.3-5zm1.2 10.2c0 2.1-.4 2.7-1.7 2.7-1.3 0-1.7-.6-1.7-2.5.1-3.5.1-3.5 1.8-3.2 1.1.3 1.6 1.2 1.6 3zm-3.3 5.4c1.2-1.2 3.3.3 3.6 2.5.2 1.9-.1 2.4-1.4 2.4-1.7 0-3.4-3.7-2.2-4.9zm2.6 58.6c-.2 1.1-.4.2-.4-2s.2-3.1.4-2 .2 2.9 0 4zm0 12.5c-.2 1.1-.4.2-.4-2s.2-3.1.4-2c.2 1 .2 2.9 0 4zm-.4-27.4c0-2 .1-2.9.4-2 .2.8.2 2.5 0 3.6-.2 1-.4.3-.4-1.6zm.4-11c-.2 1.1-.4.2-.4-2s.2-3.1.4-2 .2 3 0 4zm0-12.4c-.2 1.1-.4.2-.4-2s.2-3.1.4-2c.2 1 .2 2.9 0 4zm-2.9-11.8c.7-1.1 2.9-1.1 3.5 0 .3.4 0 1.1-.5 1.4-1.3.8-3.7-.3-3-1.4zm-.4 6.2c.5 0 .9 1.6.9 3.6s-.4 3.6-.9 3.6-.9-1.6-.9-3.6.4-3.6.9-3.6zm.9 16c0 2-.4 3.6-.9 3.6-1 0-1.2-5.7-.3-6.6 1-1 1.2-.6 1.2 3zm-.3 9c.1 0 .3 1.8.3 4.1 0 2.5-.3 3.8-.9 3.5-1.5-1-1-7.6.6-7.6zm-.6 20c-.5-.3-.9-1.9-.9-3.6 0-1.7.4-3.1.9-3.1s.9 1.6.9 3.6c0 2.2-.4 3.4-.9 3.1zm.9 9.4c0 2-.4 3.6-.9 3.6s-.9-1.6-.9-3.6.4-3.6.9-3.6.9 1.6.9 3.6zm-2.9-105.8c.2 2.9 0 3.3-1.6 3.3-1.5 0-1.8-.5-1.8-2.9 0-5.4 3-5.7 3.4-.4zm-1.6 5c1.4 0 1.8.6 1.8 3.1s-.4 3.1-1.8 3.1-1.8-.6-1.8-3.1c0-2.4.4-3.1 1.8-3.1zm0 8.1c1.4 0 1.8.6 1.8 2.7s-.4 2.7-1.8 2.7-1.8-.6-1.8-2.7.5-2.7 1.8-2.7zm0 8c1.4 0 1.8.6 1.8 2.7s-.4 2.7-1.8 2.7-1.8-.6-1.8-2.7.5-2.7 1.8-2.7zm0 7.1c1.4 0 1.8.6 1.8 3.1s-.4 3.1-1.8 3.1-1.8-.6-1.8-3.1.4-3.1 1.8-3.1zm0 8c1.4 0 1.8.6 1.8 2.7s-.4 2.7-1.8 2.7-1.8-.6-1.8-2.7.5-2.7 1.8-2.7zm0 8.1c1 0 1.8.6 1.8 1.3 0 .7-.8 1.3-1.8 1.3s-1.8-.6-1.8-1.3c0-.7.8-1.3 1.8-1.3zm.9 52.6c-.5 0-.9-1.6-.9-3.6s.4-3.6.9-3.6.9 1.6.9 3.6-.4 3.6-.9 3.6zm.9 8.9c0 2-.4 3.6-.9 3.6s-.9-1.6-.9-3.6.4-3.6.9-3.6.9 1.6.9 3.6zm-.9-22.3c-.5 0-.9-1.4-.9-3.1 0-1.7.4-3.1.9-3.1s.9 1.4.9 3.1c0 1.7-.4 3.1-.9 3.1zm0-12.5c-.5 0-.9-1.6-.9-3.6s.4-3.6.9-3.6.9 1.6.9 3.6-.4 3.6-.9 3.6zm0-12.5c-.5 0-.9-1.6-.9-3.6s.4-3.6.9-3.6.9 1.6.9 3.6-.4 3.6-.9 3.6zm-2.7-7.1c.5 0 .9 1.6.9 3.6s-.4 3.6-.9 3.6-.9-1.6-.9-3.6c.1-2 .5-3.6.9-3.6zm0 12.9c.5.3.9 1.9.9 3.6 0 1.7-.4 3.1-.9 3.1s-.9-1.6-.9-3.6c.1-2.1.4-3.4.9-3.1zm0 12.5c.5.3.9 1.9.9 3.6 0 1.7-.4 3.3-.9 3.6-.5.3-.9-1.1-.9-3.6.1-2.5.4-3.9.9-3.6zm0 12.9c.5 0 .9 1.4.9 3.1 0 1.7-.4 3.3-.9 3.6-.5.3-.9-.9-.9-3.1.1-1.9.5-3.6.9-3.6zm0 12.5c.5 0 .9 1.6.9 3.6s-.4 3.6-.9 3.6-.9-1.6-.9-3.6c.1-2 .5-3.6.9-3.6zm-2.6-5.8c-.5.3-.9-.9-.9-3.1 0-2 .4-3.6.9-3.6s.9 1.4.9 3.1c0 1.7-.4 3.3-.9 3.6zm.9 8.9c0 1.7-.4 3.3-.9 3.6-.5.3-.9-.9-.9-3.1 0-2 .4-3.6.9-3.6s.9 1.4.9 3.1zm-2.3-58.8c-.9 0-1.8-.5-2-1.1-.3-.7.5-1.1 2-1.1s2.3.4 2 1.1c-.2.6-1.1 1.1-2 1.1zm1.4 37.4c-.5.3-.9-1.1-.9-3.6s.3-3.9.9-3.6c.5.3.9 1.9.9 3.6 0 1.8-.4 3.3-.9 3.6zm0-12.9c-.5 0-.9-1.6-.9-3.6 0-2.1.4-3.4.9-3.1.5.3.9 1.9.9 3.6 0 1.7-.4 3.1-.9 3.1zm0-12.5c-.5 0-.9-1.6-.9-3.6 0-2.1.4-3.4.9-3.1.5.3.9 1.9.9 3.6 0 1.7-.4 3.1-.9 3.1zm-1.4-16.9c-1.8 0-2.2-.4-2.2-2.1 0-2.5.7-3.3 2.9-3.3 1.2 0 1.6.7 1.6 2.7 0 2.2-.4 2.7-2.3 2.7zm.1-23.2c-1.8 0-2.3-.5-2.3-2.1 0-1.2.3-2.4.6-2.7 1.3-1.3 3.4.1 3.6 2.4.3 2.1 0 2.4-1.9 2.4zm2 5.1c-.2 1.8-.8 2.5-2.1 2.5s-1.9-.7-2-2.5c-.2-2.1 0-2.5 2-2.5 2.1.1 2.3.4 2.1 2.5zm-4 6c.9-2.5 3.7-1.1 3.7 1.9 0 2.1-.4 2.7-1.8 2.7-1.8-.1-2.8-2.3-1.9-4.6zm2.1-33c1.2.2 1.7 1.2 1.9 3.6.2 3 .1 3.3-1.8 3-1.3-.2-2.2-1-2.4-2.4-.4-2.9.4-4.4 2.3-4.2zm-2.1 9.8c.3-.7 1.3-1.2 2.4-1.2 1.6 0 1.8.5 1.6 2.9-.2 2.2-.7 2.9-2.1 2.9-1.8-.1-2.8-2.3-1.9-4.6zm-.3 45.1c.5 0 .9 1.6.9 3.6s-.4 3.6-.9 3.6-.9-1.6-.9-3.6.4-3.6.9-3.6zm.9 16c0 2-.4 3.6-.9 3.6-1 0-1.2-5.7-.3-6.6 1-1 1.2-.6 1.2 3zm-.3 9c.1 0 .3 1.8.3 4.1 0 2.5-.3 3.8-.9 3.5-1.5-1-1-7.6.6-7.6zm-.6 20c-.5-.3-.9-1.9-.9-3.6 0-1.7.4-3.1.9-3.1s.9 1.6.9 3.6c0 2.2-.4 3.4-.9 3.1zm.9 9.4c0 2-.4 3.6-.9 3.6s-.9-1.6-.9-3.6.4-3.6.9-3.6.9 1.6.9 3.6zm-3.3-109c.3.2.6 1.7.6 3.4 0 2.5-.3 3.1-1.8 3.1-1.4 0-1.8-.6-1.8-3 .1-2.8 1.4-4.4 3-3.5zm-1.2 8.2c1.4 0 1.8.6 1.8 3.1s-.4 3.1-1.8 3.1-1.8-.6-1.8-3.1c.1-2.4.4-3.1 1.8-3.1zm0 8.1c1.4 0 1.8.6 1.8 2.7s-.4 2.7-1.8 2.7-1.8-.6-1.8-2.7.5-2.7 1.8-2.7zm0 8c1.4 0 1.8.6 1.8 2.7s-.4 2.7-1.8 2.7-1.8-.6-1.8-2.7.5-2.7 1.8-2.7zm0 7.1c1.4 0 1.8.6 1.8 3.1s-.4 3.1-1.8 3.1-1.8-.6-1.8-3.1.4-3.1 1.8-3.1zm0 8c1.4 0 1.8.6 1.8 2.7s-.4 2.7-1.8 2.7-1.8-.6-1.8-2.7.5-2.7 1.8-2.7zm0 8.1c1 0 1.8.6 1.8 1.3 0 .7-.8 1.3-1.8 1.3s-1.8-.6-1.8-1.3c.1-.7.9-1.3 1.8-1.3zm.9 52.6c-.5 0-.9-1.6-.9-3.6s.4-3.6.9-3.6.9 1.6.9 3.6-.4 3.6-.9 3.6zm.9 8.9c0 2-.4 3.6-.9 3.6s-.9-1.6-.9-3.6.4-3.6.9-3.6.9 1.6.9 3.6zm-.9-21.9c-.5.3-.9-1.1-.9-3.6s.3-3.9.9-3.6c.5.3.9 1.9.9 3.6 0 1.8-.4 3.3-.9 3.6zm0-12.9c-.5 0-.9-1.6-.9-3.6s.4-3.6.9-3.6.9 1.6.9 3.6-.4 3.6-.9 3.6zm0-12.5c-.5 0-.9-1.6-.9-3.6s.4-3.6.9-3.6.9 1.6.9 3.6-.4 3.6-.9 3.6zm-4.4-6.7c1.5 0 1.8.6 1.8 3.4s-.3 3.4-1.8 3.4-1.8-.6-1.8-3.4.3-3.4 1.8-3.4zm0 12.4c1.5 0 1.8.6 1.8 3.4s-.3 3.4-1.8 3.4-1.8-.6-1.8-3.4c0-2.7.3-3.4 1.8-3.4zm0 12.5c1.5 0 1.8.6 1.8 3.7 0 3-.3 3.7-1.8 3.7s-1.8-.6-1.8-3.7.3-3.7 1.8-3.7zm0 13c1.5 0 1.8.6 1.8 3.4s-.3 3.4-1.8 3.4-1.8-.6-1.8-3.4c0-2.7.3-3.4 1.8-3.4zm0 12.5c1.5 0 1.8.6 1.8 3.4s-.3 3.4-1.8 3.4-1.8-.6-1.8-3.4.3-3.4 1.8-3.4zm-4.5-50.8c.5 0 .9 1.6.9 3.6s-.4 3.6-.9 3.6-.9-1.6-.9-3.6.4-3.6.9-3.6zm0 12.5c.5 0 .9 1.6.9 3.6s-.4 3.6-.9 3.6-.9-1.6-.9-3.6.4-3.6.9-3.6zm0 13.3c.5 0 .9 1.4.9 3.1 0 1.7-.4 3.1-.9 3.1s-.9-1.4-.9-3.1c0-1.6.4-3.1.9-3.1zm0 12.5c.5 0 .9 1.6.9 3.6s-.4 3.6-.9 3.6-.9-1.6-.9-3.6.4-3.6.9-3.6zm0 12.5c.5 0 .9 1.6.9 3.6s-.4 3.6-.9 3.6-.9-1.6-.9-3.6.4-3.6.9-3.6zm-6-9.6c.6.2 1.1 1.5 1.1 2.9s-.5 2.7-1.1 2.9c-.7.2-1.1-.8-1.1-2.9 0-2.1.4-3.2 1.1-2.9zm-3.3-8.2c1 0 1.3.7 1.1 2.9-.4 4.1-2.5 4.4-2.5.4 0-2.4.4-3.3 1.4-3.3zm-8.9 0c1 0 1.3.7 1.1 2.9-.4 4.1-2.5 4.4-2.5.4 0-2.4.4-3.3 1.4-3.3zm-3.6 8c1 0 1.3.7 1.1 2.9-.4 4.1-2.5 4.4-2.5.4 0-2.4.4-3.3 1.4-3.3zm-3.5 11c.3.3.3 1.1.1 1.7-.3.7-.5.5-.5-.5-.1-1 .1-1.5.4-1.2zm-10.7-7.4c-1.8 0-2.3-.5-2.3-2.1 0-1.2.3-2.4.6-2.7 1.3-1.3 3.4.1 3.6 2.4.3 2 0 2.4-1.9 2.4zm1.9 14c-.4 2.3-3.4 2.6-3.4.4 0-1.2.6-1.9 1.8-1.9 1.4-.1 1.8.4 1.6 1.5zm-3.9-26.2c.9-2.5 3.7-1.1 3.7 1.9 0 2.1-.4 2.7-1.8 2.7-1.9 0-2.8-2.2-1.9-4.6zm1.9-3c-1.9 0-2.2-.4-2.2-2.7 0-2.2.4-2.7 2.2-2.7 1.9 0 2.2.4 2.2 2.7 0 2.3-.3 2.7-2.2 2.7zm-2.2-10.1c0-1.2.3-2.4.6-2.7 1.3-1.3 3.4.1 3.6 2.4.2 2.1-.1 2.4-2 2.4-1.7 0-2.2-.5-2.2-2.1zm2.3-52.3c-1.8 0-2.3-.5-2.3-2.1 0-1.2.3-2.4.6-2.7 1.3-1.3 3.4.1 3.6 2.4.3 2.1 0 2.4-1.9 2.4zm2 5.1c-.2 1.8-.8 2.5-2.1 2.5s-1.9-.7-2.1-2.5c-.2-2.1 0-2.5 2.1-2.5 2 .1 2.3.4 2.1 2.5zm-4 6c.9-2.5 3.7-1.1 3.7 1.9 0 2.1-.4 2.7-1.8 2.7-1.9-.1-2.8-2.3-1.9-4.6zm1.9 20.1c-1.9 0-2.2-.4-2.2-2.7 0-2.2.4-2.7 2.2-2.7 1.9 0 2.2.4 2.2 2.7 0 2.3-.3 2.7-2.2 2.7zm.1 8c-1.9 0-2.3-.4-2.3-2.5 0-3 .5-3.7 2.5-3.4 1 .1 1.6 1.3 1.8 3 .2 2.6 0 2.9-2 2.9zm-.1-16c-1.8 0-2.2-.4-2.2-2.1 0-2.5.7-3.3 2.9-3.3 1.2 0 1.6.7 1.6 2.7-.1 2.2-.4 2.7-2.3 2.7zm.2-45.1c1.2.2 1.7 1.2 1.9 3.6.2 3 .1 3.3-1.8 3-1.3-.2-2.2-1-2.4-2.4-.4-2.9.4-4.4 2.3-4.2zm-2.1 9.8c.3-.7 1.3-1.2 2.4-1.2 1.6 0 1.8.5 1.6 2.9-.2 2.2-.7 2.9-2.1 2.9-1.9-.1-2.8-2.3-1.9-4.6zm0 54.4c.3-.7 1.3-1.2 2.4-1.2 1.6 0 1.8.5 1.6 2.9-.2 2.2-.7 2.9-2.1 2.9-1.9-.1-2.8-2.3-1.9-4.6zm-3.3-64c.7.3 1.2 1.7 1.2 3.5 0 2.4-.4 3-1.8 3s-1.8-.6-1.8-2.9c0-3.4.6-4.2 2.4-3.6zm-.6 8.3c1.4 0 1.8.6 1.8 3.1s-.4 3.1-1.8 3.1-1.8-.6-1.8-3.1c0-2.4.4-3.1 1.8-3.1zm0 8.1c1.4 0 1.8.6 1.8 2.7s-.4 2.7-1.8 2.7-1.8-.6-1.8-2.7.5-2.7 1.8-2.7zm0 8c1.4 0 1.8.6 1.8 2.7s-.4 2.7-1.8 2.7-1.8-.6-1.8-2.7.5-2.7 1.8-2.7zm0 7.1c1.4 0 1.8.6 1.8 3.1s-.4 3.1-1.8 3.1-1.8-.6-1.8-3.1.4-3.1 1.8-3.1zm0 8c1.4 0 1.8.6 1.8 2.7s-.4 2.7-1.8 2.7-1.8-.6-1.8-2.7.5-2.7 1.8-2.7zm0 8.1c1.4 0 1.8.6 1.8 2.7s-.4 2.7-1.8 2.7-1.8-.6-1.8-2.7.5-2.7 1.8-2.7zm.6 7.7c.7.3 1.2 1.6 1.2 3.1 0 2-.4 2.6-1.8 2.6-1.3 0-1.8-.6-1.8-2.5 0-3 .7-3.8 2.4-3.2zm-.6 7.4c1.4 0 1.8.6 1.8 3.1s-.4 3.1-1.8 3.1-1.8-.6-1.8-3.1.4-3.1 1.8-3.1zm0 8c1.4 0 1.8.6 1.8 2.7s-.4 2.7-1.8 2.7-1.8-.6-1.8-2.7c0-2 .5-2.7 1.8-2.7zm0 8.1c1.4 0 1.8.6 1.8 2.7s-.4 2.7-1.8 2.7-1.8-.6-1.8-2.7.5-2.7 1.8-2.7zm0 7.1c1.4 0 1.8.6 1.8 3.1s-.4 3.1-1.8 3.1-1.8-.6-1.8-3.1.4-3.1 1.8-3.1zm0 8c1.4 0 1.8.6 1.8 2.7s-.4 2.7-1.8 2.7-1.8-.6-1.8-2.7.5-2.7 1.8-2.7zm-.8 17.8c1.2 0 1.7.5 1.5 1.5-.4 2.3-3.4 2.6-3.4.4 0-1.2.7-1.9 1.9-1.9zm-5-27.6c-1.9 0-2.2-.4-2.2-2.7 0-2.2.4-2.7 2.2-2.7 1.9 0 2.2.4 2.2 2.7.1 2.3-.3 2.7-2.2 2.7zm.1 15.2c-1.8 0-2.3-.5-2.3-2.1 0-1.2.3-2.4.6-2.7 1.3-1.3 3.4.1 3.6 2.4.3 2 0 2.4-1.9 2.4zm0-38.4c-1.9 0-2.3-.4-2.3-2.5 0-3 .5-3.7 2.5-3.4 1 .1 1.6 1.3 1.8 3 .2 2.6 0 2.9-2 2.9zm2 4.7c-.2 2.2-.7 2.9-2.1 2.9-1.4 0-1.8-.7-2.1-2.9-.2-2.6 0-2.9 2.1-2.9s2.3.3 2.1 2.9zm-3.7 5.7c1.3-1.3 3.4.1 3.6 2.4.2 2.1-.1 2.4-2 2.4-1.8 0-2.3-.5-2.3-2.1.1-1.2.4-2.4.7-2.7zm1.6-18.4c-1.9 0-2.2-.4-2.2-2.7 0-2.2.4-2.7 2.2-2.7 1.9 0 2.2.4 2.2 2.7.1 2.3-.3 2.7-2.2 2.7zm0-8c-1.9 0-2.2-.4-2.2-2.7s.4-2.7 2.2-2.7c1.9 0 2.2.4 2.2 2.7s-.3 2.7-2.2 2.7zm0-15.6c-1.3 0-1.9-.7-2.1-2.5-.2-2.1 0-2.5 2.1-2.5 2 0 2.3.3 2.1 2.5-.2 1.8-.8 2.5-2.1 2.5zm2.1-18.1c-.2 2.2-.7 2.9-2.1 2.9-1.4 0-1.8-.7-2.1-2.9-.2-2.6 0-2.9 2.1-2.9s2.3.4 2.1 2.9zm-1.8-11.4c1 .2 1.6 1.3 1.8 3.5.2 2.9 0 3.3-2 3.3s-2.3-.4-2.3-2.9c0-3.6.4-4.2 2.5-3.9zm-1.9 17.1c1.3-1.3 3.4.1 3.6 2.4.2 2.1-.1 2.4-2 2.4-1.8 0-2.3-.5-2.3-2.1.1-1.1.4-2.4.7-2.7zm-.3 15.9c.9-2.5 3.7-1.1 3.7 1.9 0 2.1-.4 2.7-1.8 2.7-1.8-.1-2.8-2.3-1.9-4.6zm0 54.3c.9-2.5 3.7-1.1 3.7 1.9 0 2.1-.4 2.7-1.8 2.7-1.8 0-2.8-2.2-1.9-4.6zm-.3 26.4c0 1-.6 1.8-1.3 1.8-.7 0-1.3-.8-1.3-1.8s.6-1.8 1.3-1.8c.7 0 1.3.9 1.3 1.8zm-3-113.5c.7.3 1.2 1.7 1.2 3.5 0 2.4-.4 3-1.8 3s-1.8-.6-1.8-2.9c0-3.4.6-4.2 2.4-3.6zm-.6 8.3c1.4 0 1.8.6 1.8 3.1s-.4 3.1-1.8 3.1-1.8-.6-1.8-3.1c0-2.4.4-3.1 1.8-3.1zm0 8.1c1.4 0 1.8.6 1.8 2.7s-.4 2.7-1.8 2.7-1.8-.6-1.8-2.7.5-2.7 1.8-2.7zm0 8c1.4 0 1.8.6 1.8 2.7s-.4 2.7-1.8 2.7-1.8-.6-1.8-2.7.5-2.7 1.8-2.7zm0 7.1c1.4 0 1.8.6 1.8 3.1s-.4 3.1-1.8 3.1-1.8-.6-1.8-3.1.4-3.1 1.8-3.1zm0 8c1.4 0 1.8.6 1.8 2.7s-.4 2.7-1.8 2.7-1.8-.6-1.8-2.7.5-2.7 1.8-2.7zm0 8.1c1.5 0 1.8.6 1.7 3.3-.1 1.9-.3 2.7-.5 1.8-.2-.9-1-1.6-1.7-1.6s-1.3-.8-1.3-1.8c0-1.1.7-1.7 1.8-1.7zm0 8c1.4 0 1.8.6 1.8 2.7 0 2-.4 2.7-1.8 2.7s-1.8-.6-1.8-2.7.5-2.7 1.8-2.7zm0 7.1c1.4 0 1.8.6 1.8 3.1s-.4 3.1-1.8 3.1-1.8-.6-1.8-3.1.4-3.1 1.8-3.1zm0 8c1.4 0 1.8.6 1.8 2.7s-.4 2.7-1.8 2.7-1.8-.6-1.8-2.7c0-2 .5-2.7 1.8-2.7zm0 8.1c1.4 0 1.8.6 1.8 2.7s-.4 2.7-1.8 2.7-1.8-.6-1.8-2.7.5-2.7 1.8-2.7zm0 7.1c1.4 0 1.8.6 1.8 3.1s-.4 3.1-1.8 3.1-1.8-.6-1.8-3.1.4-3.1 1.8-3.1zm0 8c1.4 0 1.8.6 1.8 2.7s-.4 2.7-1.8 2.7-1.8-.6-1.8-2.7.5-2.7 1.8-2.7zm-2-39.6c-.3.3-1.1.3-1.7.1-.7-.3-.5-.5.5-.5.9-.1 1.5.2 1.2.4zm-3.5-54.5c1.1.2 1.5 1.1 1.5 3.3 0 2.5-.4 3.1-2 3.3-1.8.2-2-.1-2-2.8 0-3.5.4-4.1 2.5-3.8zm1.5 11.7c0 2.1-.4 2.7-1.8 2.7s-1.8-.7-2.1-3c-.2-2.7-.1-3 1.8-2.7 1.7.2 2.1.8 2.1 3zm-2 5c1.5.2 2.1.9 2.3 2.7.2 2.1 0 2.5-2 2.5-1.9 0-2.3-.4-2.3-2.7 0-2.3.3-2.7 2-2.5zm.3 7.9c2 0 2.2.3 2 2.5-.2 1.8-.8 2.5-2.3 2.7-1.7.2-2-.1-2-2.5s.3-2.7 2.3-2.7zm.4 7.3c.8.2 1.3 1.2 1.3 2.9 0 2.1-.5 2.7-2 2.9-1.7.2-2-.2-2-2.3 0-2.9.7-3.8 2.7-3.5zm-.7 8c1.5.2 2.1.9 2.3 2.7.2 2.1 0 2.5-2 2.5-1.9 0-2.3-.4-2.3-2.7 0-2.3.3-2.7 2-2.5zm.2 7.9c1.6 0 2.2.5 2.2 1.8s-.6 1.8-2.2 1.8-2.2-.5-2.2-1.8.6-1.8 2.2-1.8zm-30.9 6.1c16.6.2 29.2.5 28.1.7-1.9.3-2 .8-2 7 0 5.3.3 6.6 1.3 6.6.9 0 1.3-.9 1.3-2.7 0-1.5.5-2.7 1.1-2.7.8 0 .8-.3 0-1.1-.6-.6-1.1-2.2-1.1-3.6 0-2.1.4-2.5 2.2-2.5 2.5 0 2.3-2.6 2.4 30.8.1 16.9 0 17.8-1.6 17.8-1.2 0-1.6-.6-1.4-1.9.1-1.1-.1-2.2-.7-2.5-.5-.3-.9-1.6-.9-2.8 0-1.3-.5-2.2-1.3-2.2-1 0-1.3 1.1-1.3 4.4 0 2.9-.4 4.5-1.2 4.8-1.9.7-2.3-.2-2.3-4.9 0-3.9-.2-4.3-2.2-4.3s-2.2.4-2.5 4.7c-.2 3.5-.6 4.7-1.6 4.7s-1.4-1.2-1.6-4.7c-.2-4.3-.5-4.7-2.4-4.7s-2.2.4-2.4 4.7c-.2 3.5-.6 4.7-1.6 4.7s-1.4-1.2-1.6-4.7c-.2-4.3-.5-4.7-2.4-4.7-2 0-2.2.4-2.4 4.7-.2 3.5-.6 4.7-1.6 4.7s-1.4-1.2-1.6-4.7c-.2-4.3-.5-4.7-2.4-4.7s-2.2.4-2.4 4.7c-.2 3.5-.6 4.7-1.6 4.7s-1.4-1.2-1.6-4.7c-.2-4.3-.5-4.7-2.4-4.7-2 0-2.2.4-2.4 4.7-.2 3.5-.6 4.7-1.6 4.7s-1.4-1.2-1.6-4.7c-.2-4.3-.5-4.7-2.4-4.7-2 0-2.2.4-2.4 4.7-.2 3.5-.6 4.7-1.6 4.7s-1.4-1.2-1.6-4.5c-.1-2.5-.7-4.8-1.3-5.2-.8-.6-.8-.9 0-1.2 1.4-.6 1.6-9.3.2-10.7-.7-.7-.7-1.1 0-1.6 1.2-.8 1.2-10 0-10.7-.7-.4-.7-.9 0-1.6.5-.5 1-3.3 1-6.2 0-4.5.2-5.2 1.8-5.2s1.8.6 1.8 5.3c0 5.1.1 5.3 2.2 5.3s2.2-.3 2.2-5.3c0-4.7.2-5.3 1.8-5.3s1.8.6 1.8 5.3c0 5.1.1 5.3 2.2 5.3s2.2-.3 2.2-5.3c0-4.7.2-5.3 1.8-5.3s1.8.6 1.8 5.3c0 5.1.1 5.3 2.2 5.3s2.2-.3 2.2-5.3c0-4.7.2-5.3 1.8-5.3s1.8.6 1.8 5.3c0 5.1.1 5.3 2.2 5.3s2.2-.3 2.2-5.3c0-4.7.2-5.3 1.8-5.3s1.8.6 1.8 5.3c0 5.1.1 5.3 2.2 5.3s2.2-.3 2.2-5.3c0-4.7.2-5.3 1.8-5.3s1.8.6 1.8 5.3c0 5.1.1 5.3 2.2 5.3s2.2-.3 2.2-4.7c0-2.6.2-5.6.5-6.7l.5-2h-26.8c-14.8 0-26.8-.3-26.8-.7-.1.1 13.4-.1 30 .1zm-30.5 53c.3.3.3 1.1.1 1.7-.3.7-.5.5-.5-.5-.1-1 .1-1.5.4-1.2zm-10.3-98.4c1.2 0 1.8.6 1.8 1.8 0 1.2-.6 1.8-1.8 1.8-1.2 0-1.8-.6-1.8-1.8 0-1.1.6-1.8 1.8-1.8zm1.8 8.1c0 1.2-.5 1.7-1.5 1.5-2.3-.4-2.6-3.4-.4-3.4 1.2.1 1.9.7 1.9 1.9zm-3.1 4.2c1.2-1.2 3-.5 3 1.2 0 1.2-.6 1.8-1.8 1.8-1.6-.1-2.4-1.9-1.2-3zm1.3 20.7c-1.2 0-1.8-.6-1.8-1.8s.6-1.8 1.8-1.8c1.2 0 1.8.6 1.8 1.8s-.7 1.8-1.8 1.8zm1.8 4.6c0 1.8-2.2 2.3-3.1.8-.3-.6-.4-1.5-.1-2.2.6-1.8 3.2-.7 3.2 1.4zm-3.2-10.9c-.9-1.4.3-3.5 1.9-3.5.7 0 1.3.8 1.3 1.7 0 1.9-2.4 3.2-3.2 1.8zm1.6-5.5c-2.3-.4-2.6-3.4-.4-3.4 1.2 0 1.9.6 1.9 1.8.1 1.3-.4 1.8-1.5 1.6zm-1.5 20.5c1.2-1.2 3-.5 3 1.2 0 1.2-.6 1.8-1.8 1.8-1.6-.1-2.4-1.8-1.2-3zm3.1 7.5c0 1.8-2.2 2.3-3.1.8-.3-.6-.4-1.5-.1-2.2.6-1.8 3.2-.7 3.2 1.4zm-3.1 4.1c1.2-1.2 3-.5 3 1.2 0 1.2-.6 1.8-1.8 1.8-1.6-.1-2.4-1.8-1.2-3zm3.1 7.4c0 1.2-.6 1.8-1.8 1.8-1.2 0-1.8-.6-1.8-1.8 0-1.2.6-1.8 1.8-1.8 1.1 0 1.8.6 1.8 1.8zm-3.1 4.2c1.2-1.2 3-.5 3 1.2 0 1.2-.6 1.8-1.8 1.8-1.6-.1-2.4-1.9-1.2-3zm1.3 32.3c-1.2 0-1.8-.6-1.8-1.8 0-1.2.6-1.8 1.8-1.8 1.2 0 1.8.6 1.8 1.8 0 1.2-.7 1.8-1.8 1.8zm1.8 3.1c0 .7-.8 1.3-1.8 1.3-1.8 0-2.4-.9-1.2-2.1 1-1 3-.5 3 .8zm-1.8-9.3c-1.2 0-1.8-.6-1.8-1.8 0-1.2.6-1.8 1.8-1.8 1.2 0 1.8.6 1.8 1.8 0 1.1-.7 1.8-1.8 1.8zm0-5.4c-1.2 0-1.8-.6-1.8-1.8 0-1.2.6-1.8 1.8-1.8 1.2 0 1.8.6 1.8 1.8 0 1.2-.7 1.8-1.8 1.8zm0-6.2c-1.2 0-1.8-.6-1.8-1.8 0-1.2.6-1.8 1.8-1.8 1.2 0 1.8.6 1.8 1.8 0 1.2-.7 1.8-1.8 1.8zm0-5.4c-1.2 0-1.8-.6-1.8-1.8 0-1.2.6-1.8 1.8-1.8 1.2 0 1.8.6 1.8 1.8 0 1.2-.7 1.8-1.8 1.8zm-5.8-74c1.6 0 2.2.5 2.2 1.8s-.6 1.8-2.2 1.8-2.2-.5-2.2-1.8.6-1.8 2.2-1.8zm2 7.8c-.1.9-1.1 1.6-2.1 1.6s-1.9-.7-2.1-1.6c-.2-1.1.4-1.6 2.1-1.6 1.8.1 2.3.5 2.1 1.6zm-3.7 4.5c1.4-1.4 3.9-.6 3.9 1.2 0 1.3-.6 1.8-2.2 1.8-2.2-.1-3.1-1.7-1.7-3zm2.1 20.7c-2 0-3.1-1.3-2.3-2.7 1-1.6 4-1 4 .9.1 1.2-.5 1.8-1.7 1.8zm-1.9 5.6c-1.3-1.3-.2-3.6 1.7-3.3.9.1 1.7.9 1.9 1.7.3 1.7-2.3 2.9-3.6 1.6zm-.4-14.1c.7-1.9 3.6-1.2 3.6.9 0 .9-.7 1.8-1.5 1.9-1.8.2-2.8-1-2.1-2.8zm2.1-3.3c-2.9-.4-3.3-3.4-.4-3.4 1.8 0 2.3.4 2.3 1.8.1 1.5-.3 1.9-1.9 1.6zm-1.9 20.5c1.4-1.4 3.9-.6 3.9 1.2 0 1.3-.6 1.8-2.2 1.8-2.2-.1-3.1-1.7-1.7-3zm.1 11.5c1.1-1.1 3.3-.2 3.6 1.4.2 1.2-.3 1.6-2 1.6-2.2 0-3-1.6-1.6-3zm-.3-5.5c.7-1.8 3.6-1 4 1.2.2 1.4-.2 2-1.5 2-2.1 0-3.2-1.4-2.5-3.2zm1.9 22.8c1.6 0 2.2.5 2.2 1.8s-.6 1.8-2.2 1.8-2.2-.5-2.2-1.8.6-1.8 2.2-1.8zm-1.6-5.7c1.1-1.1 3.3-.2 3.6 1.4.2 1.2-.3 1.6-2 1.6-2.2 0-3-1.6-1.6-3zm1.8-2.5c-2.9-.4-3.3-3.4-.4-3.4 1.8 0 2.3.4 2.3 1.8.1 1.4-.3 1.8-1.9 1.6zm-1.9 14.1c1.4-1.4 3.9-.6 3.9 1.2 0 1.3-.6 1.8-2.2 1.8-2.2 0-3.1-1.6-1.7-3zm3.9 7.4c0 1.3-.6 1.8-2.2 1.8s-2.2-.5-2.2-1.8.6-1.8 2.2-1.8 2.2.6 2.2 1.8zm-3.9 4.2c1.4-1.4 3.9-.6 3.9 1.2 0 1.3-.6 1.8-2.2 1.8-2.2 0-3.1-1.6-1.7-3zm1.7 9.2c-1.6 0-2.2-.5-2.2-1.8s.6-1.8 2.2-1.8 2.2.5 2.2 1.8-.6 1.8-2.2 1.8zm2.2 3.1c0 .9-.8 1.3-2.2 1.3-2.1 0-2.9-.9-1.7-2.1 1.1-1 3.9-.5 3.9.8zm-6-99.7c1 1-.4 3-2.1 3-1.1 0-1.7-.6-1.7-1.8 0-1.7 2.6-2.5 3.8-1.2zm.2 7.5c0 1.9-3.5 1.6-3.9-.4-.2-1.2.2-1.5 1.8-1.3 1.2.2 2.1.9 2.1 1.7zm-.2 4.1c1 1-.4 3-2.1 3-1.1 0-1.7-.6-1.7-1.8 0-1.7 2.6-2.5 3.8-1.2zm-1.8 84.8c-1.5.2-2-.2-2-1.6 0-1.4.5-1.8 2-1.6 1.1.1 2 .9 2 1.6 0 .7-.9 1.5-2 1.6zm2 3.3c0 .5-.9 1-2 1.2-1.3.2-2-.2-2-1.2s.7-1.3 2-1.2c1.1.2 2 .8 2 1.2zm-2.3-9.3c-1.1 0-1.7-.6-1.7-1.8 0-1.7 2.6-2.5 3.8-1.2 1 .9-.4 3-2.1 3zm-1.7-7.2c0-1.4.5-1.8 2-1.6 1.1.1 2 .9 2 1.6 0 .7-.9 1.5-2 1.6-1.5.2-2-.1-2-1.6zm1.7-4.4c-1.1 0-1.7-.6-1.7-1.8 0-1.7 2.6-2.5 3.8-1.2 1 .9-.4 3-2.1 3zm-1.7-7.2c0-2.1 3.1-2.5 3.8-.5.6 1.6-.1 2.3-2.2 2.3-1 0-1.6-.6-1.6-1.8zm1.6-9.8c-1 0-1.6-.6-1.6-1.8 0-2.1 3.1-2.5 3.8-.5.7 1.6-.1 2.3-2.2 2.3zm-.9-23.8c-1.4-1.4-.3-3.6 1.6-3.3.8.1 1.6.9 1.7 1.7.3 1.8-1.9 2.9-3.3 1.6zm1.3-20.6c1.1.1 2 .9 2 1.6 0 .7-.9 1.5-2 1.6-1.5.2-2-.2-2-1.6 0-1.4.5-1.8 2-1.6zm2 7.4c0 .9-.7 1.8-1.5 1.9-1.9.3-2.8-1-2.1-2.8.7-1.9 3.6-1.2 3.6.9zm-2 4.2c1.1.1 2 .9 2 1.6 0 .7-.9 1.5-2 1.6-1.5.2-2-.2-2-1.6 0-1.4.5-1.8 2-1.6zm0 11.6c1.1.1 2 .9 2 1.6 0 .7-.9 1.5-2 1.6-1.5.2-2-.2-2-1.6 0-1.4.5-1.8 2-1.6zm.5 5.6c.8.1 1.5 1 1.5 1.9 0 1.1-.8 1.8-2 2-1.5.2-2-.1-2-1.4 0-2.2.6-2.8 2.5-2.5zm-1.9 6.4c1-1 3.4-.2 3.4 1.2 0 .8-.9 1.5-2.1 1.6-1.9.3-2.7-1.4-1.3-2.8zm0 11.6c1-1 3.4-.2 3.4 1.2 0 .8-.9 1.5-2.1 1.6-1.9.3-2.7-1.4-1.3-2.8zM95.4 131c.9 0 1.3.8 1.3 2.2 0 1.4-.5 2.2-1.3 2.2-.9 0-1.3-.8-1.3-2.2-.1-1.4.4-2.2 1.3-2.2zm0 6.3c.9 0 1.3.8 1.3 2.2s-.5 2.2-1.3 2.2c-.9 0-1.3-.8-1.3-2.2s.4-2.2 1.3-2.2zm-17-99.9c.7 0 1.3.8 1.3 1.8s-.6 1.8-1.3 1.8c-.7 0-1.3-.8-1.3-1.8s.6-1.8 1.3-1.8zm-.8 13.1c1-1 2.1.2 2.1 2.1 0 1-.6 1.8-1.3 1.8-1.3 0-1.9-2.8-.8-3.9zm0 13.4c1-1 2.1.2 2.1 2.1 0 1-.6 1.8-1.3 1.8-1.3-.1-1.9-2.8-.8-3.9zm.8 83.2c-.7 0-1.3-.8-1.3-1.8s.6-1.8 1.3-1.8c.7 0 1.3.8 1.3 1.8.1 1-.5 1.8-1.3 1.8zm1.4 11.1c0 1.4-.5 2.2-1.3 2.2-.9 0-1.3-.8-1.3-2.2 0-1.4.5-2.2 1.3-2.2s1.3.8 1.3 2.2zm-1.4-24.5c-.7 0-1.3-.8-1.3-1.8s.6-1.8 1.3-1.8c.7 0 1.3.8 1.3 1.8.1 1-.5 1.8-1.3 1.8zm0-12.5c-.9 0-1.3-.8-1.3-2.2 0-1.4.5-2.2 1.3-2.2.9 0 1.3.8 1.3 2.2.1 1.4-.4 2.2-1.3 2.2zm0-13.3c-.9 0-1.3-.8-1.3-2.2 0-1.4.5-2.2 1.3-2.2.9 0 1.3.8 1.3 2.2.1 1.4-.4 2.2-1.3 2.2zm0-17.9c1 0 1.3.7 1.2 2-.1 1.1-.7 2-1.2 2s-1-.9-1.2-2c-.1-1.3.3-2 1.2-2zm0-13.3c1 0 1.3.7 1.2 2-.1 1.1-.7 2-1.2 2s-1-.9-1.2-2c-.1-1.4.3-2 1.2-2zM74 37.4c.7 0 1.3.8 1.3 1.8S74.7 41 74 41c-.7 0-1.3-.8-1.3-1.8-.1-1 .5-1.8 1.3-1.8zm-.8 13.1c1-1 2.1.2 2.1 2.1 0 1-.6 1.8-1.3 1.8-1.4 0-1.9-2.8-.8-3.9zm0 13.4c1-1 2.1.2 2.1 2.1 0 1-.6 1.8-1.3 1.8-1.4-.1-1.9-2.8-.8-3.9zm.8 83.2c-.7 0-1.3-.8-1.3-1.8s.6-1.8 1.3-1.8c.7 0 1.3.8 1.3 1.8s-.6 1.8-1.3 1.8zm1.3 11.1c0 1.4-.5 2.2-1.3 2.2-.9 0-1.3-.8-1.3-2.2 0-1.4.5-2.2 1.3-2.2s1.3.8 1.3 2.2zM74 133.7c-.7 0-1.3-.8-1.3-1.8s.6-1.8 1.3-1.8c.7 0 1.3.8 1.3 1.8s-.6 1.8-1.3 1.8zm0-12.5c-.9 0-1.3-.8-1.3-2.2 0-1.4.5-2.2 1.3-2.2.9 0 1.3.8 1.3 2.2 0 1.4-.5 2.2-1.3 2.2zm0-13.3c-.9 0-1.3-.8-1.3-2.2 0-1.4.5-2.2 1.3-2.2.9 0 1.3.8 1.3 2.2 0 1.4-.5 2.2-1.3 2.2zM74 90c1 0 1.3.7 1.2 2-.1 1.1-.7 2-1.2 2s-1-.9-1.2-2c-.2-1.3.2-2 1.2-2zm0-13.3c1 0 1.3.7 1.2 2-.1 1.1-.7 2-1.2 2s-1-.9-1.2-2c-.2-1.4.2-2 1.2-2zm-4.5-39.3c.7 0 1.3.8 1.3 1.8s-.6 1.8-1.3 1.8c-.7 0-1.3-.8-1.3-1.8s.6-1.8 1.3-1.8zm-.8 13.1c1-1 2.1.2 2.1 2.1 0 1-.6 1.8-1.3 1.8-1.3 0-1.9-2.8-.8-3.9zm0 13.4c1-1 2.1.2 2.1 2.1 0 1-.6 1.8-1.3 1.8-1.3-.1-1.9-2.8-.8-3.9zm.8 83.2c-.7 0-1.3-.8-1.3-1.8s.6-1.8 1.3-1.8c.7 0 1.3.8 1.3 1.8s-.6 1.8-1.3 1.8zm1.3 11.1c0 1.4-.5 2.2-1.3 2.2-.9 0-1.3-.8-1.3-2.2 0-1.4.5-2.2 1.3-2.2.9 0 1.3.8 1.3 2.2zm-1.3-24.5c-.7 0-1.3-.8-1.3-1.8s.6-1.8 1.3-1.8c.7 0 1.3.8 1.3 1.8s-.6 1.8-1.3 1.8zm0-12.5c-.9 0-1.3-.8-1.3-2.2 0-1.4.5-2.2 1.3-2.2.9 0 1.3.8 1.3 2.2 0 1.4-.4 2.2-1.3 2.2zm0-13.3c-.9 0-1.3-.8-1.3-2.2 0-1.4.5-2.2 1.3-2.2.9 0 1.3.8 1.3 2.2 0 1.4-.4 2.2-1.3 2.2zm0-17.9c1 0 1.3.7 1.2 2-.1 1.1-.7 2-1.2 2s-1-.9-1.2-2c-.1-1.3.3-2 1.2-2zm0-13.3c1 0 1.3.7 1.2 2-.1 1.1-.7 2-1.2 2s-1-.9-1.2-2c-.1-1.4.3-2 1.2-2zm-4.4-39.3c.7 0 1.3.8 1.3 1.8s-.6 1.8-1.3 1.8c-.7 0-1.3-.8-1.3-1.8-.1-1 .5-1.8 1.3-1.8zm-.8 13.1c1-1 2.1.2 2.1 2.1 0 1-.6 1.8-1.3 1.8-1.4 0-2-2.8-.8-3.9zm-.4 94.5c-.2-.9.3-1.5 1.1-1.5s1.4.8 1.4 1.9c0 2.2-2.1 1.9-2.5-.4zm2.5 13.3c0 2.8-2.1 2.5-2.5-.4-.2-1.3.2-2 1.1-2 .9.1 1.4.9 1.4 2.4zm-1.3-24.6c-.7 0-1.3-.8-1.3-1.8s.6-1.8 1.3-1.8c.7 0 1.3.8 1.3 1.8s-.6 1.8-1.3 1.8zm-1.2-15c-.2-1.3.2-2 1.1-2 .9 0 1.4.8 1.4 2.3 0 2.9-2.1 2.6-2.5-.3zm1.2-10.8c-.9 0-1.3-.8-1.3-2.2 0-1.4.5-2.2 1.3-2.2.9 0 1.3.8 1.3 2.2 0 1.4-.5 2.2-1.3 2.2zm0-17.9c1 0 1.3.7 1.2 2-.1 1.1-.7 2-1.2 2s-1-.9-1.2-2c-.2-1.3.2-2 1.2-2zm-1-9.9c-.8-1.2.1-3.5 1.4-3.5.5 0 .9.8.9 1.7 0 2.1-1.4 3.2-2.3 1.8zm0-13.3c-.8-1.3.2-3.7 1.4-3.1.5.3.9 1.4.9 2.2 0 1.9-1.3 2.4-2.3.9zM61 37.4c1.2 0 1.8.6 1.8 1.8 0 1.2-.6 1.8-1.8 1.8-1.2 0-1.8-.6-1.8-1.8.1-1.1.7-1.8 1.8-1.8zm-.9 43.1c-1.1-1.1-.4-3.8 1-3.8.6 0 1.2.6 1.5 1.4.7 2-1.2 3.8-2.5 2.4zM62.6 92c-.1 1.1-.9 2-1.6 2-.7 0-1.5-.9-1.6-2-.2-1.5.2-2 1.6-2 1.5 0 1.8.5 1.6 2zm-2.5-24.9c-1.1-1.1-.4-3.8 1-3.8.6 0 1.2.6 1.5 1.4.7 2-1.2 3.8-2.5 2.4zm2.5-14.7c.2 1.5-.1 2-1.5 2-1.2 0-1.8-.6-1.8-1.6 0-3.4 2.8-3.7 3.3-.4zm-1.6 51c1.3 0 1.8.6 1.8 2.2s-.5 2.2-1.8 2.2-1.8-.6-1.8-2.2c.1-1.6.6-2.2 1.8-2.2zm1.6 15.4c-.1 1.1-.9 2-1.6 2-.7 0-1.5-.9-1.6-2-.2-1.5.2-2 1.6-2 1.5 0 1.8.5 1.6 2zM61 130.1c1.2 0 1.8.6 1.8 1.8 0 1.2-.6 1.8-1.8 1.8-1.2 0-1.8-.6-1.8-1.8.1-1.1.7-1.8 1.8-1.8zm0 25.9c1.4 0 1.8.5 1.6 2-.1 1.1-.9 2-1.6 2-.7 0-1.5-.9-1.6-2-.2-1.5.2-2 1.6-2zm0-12.5c1.3 0 1.8.4 1.6 1.6-.2.9-.8 1.6-1.6 1.6s-1.5-.7-1.6-1.6c-.2-1.1.3-1.6 1.6-1.6zM56.6 37.4c1.2 0 1.8.6 1.8 1.8 0 1.2-.6 1.8-1.8 1.8-1.2 0-1.8-.6-1.8-1.8 0-1.1.6-1.8 1.8-1.8zm-1 43.1c-1.1-1.1-.4-3.8 1-3.8.6 0 1.2.6 1.5 1.4.8 2-1.1 3.8-2.5 2.4zM58.2 92c-.1 1.1-.9 2-1.6 2-.7 0-1.5-.9-1.6-2-.2-1.5.2-2 1.6-2 1.4 0 1.8.5 1.6 2zm-2.6-24.9c-1.1-1.1-.4-3.8 1-3.8.6 0 1.2.6 1.5 1.4.8 2-1.1 3.8-2.5 2.4zm2.6-14.7c.2 1.5-.1 2-1.5 2-1.2 0-1.8-.6-1.8-1.6-.1-3.4 2.8-3.7 3.3-.4zm-1.6 51c1.3 0 1.8.6 1.8 2.2s-.5 2.2-1.8 2.2-1.8-.6-1.8-2.2.5-2.2 1.8-2.2zm1.6 15.4c-.1 1.1-.9 2-1.6 2-.7 0-1.5-.9-1.6-2-.2-1.5.2-2 1.6-2 1.4 0 1.8.5 1.6 2zm-1.6 11.3c1.2 0 1.8.6 1.8 1.8 0 1.2-.6 1.8-1.8 1.8-1.2 0-1.8-.6-1.8-1.8 0-1.1.6-1.8 1.8-1.8zm0 25.9c1.4 0 1.8.5 1.6 2-.1 1.1-.9 2-1.6 2-.7 0-1.5-.9-1.6-2-.2-1.5.2-2 1.6-2zm0-12.5c1.3 0 1.8.4 1.6 1.6-.2.9-.8 1.6-1.6 1.6s-1.5-.7-1.6-1.6c-.2-1.1.2-1.6 1.6-1.6zM42 145c.7.3 1.2 1.4 1.2 2.6 0 2.8-2.4 2.8-2.9-.1-.5-2.6-.1-3.1 1.7-2.5zm.3 165.7c-6.3-12.8-12.4-29-13.9-36.8l-.5-2.9h14.8c13.4 0 14.9.2 15.3 1.6 2.1 7 11 28 14.3 33.7l4 7-1.8 5.3c-4.5 13.6-9.3 26.8-10 27.5-1.1 1.4-14.9-20.6-22.2-35.4zm20.5-38.5c0-.1 4.1-.3 9.1-.5s11.1-.4 13.4-.5c3.3-.1 4.2.1 4.2 1.2 0 1.4-8.1 25.7-10.4 31.3l-1.3 3.2-2.2-3.9c-3.4-6-7.3-14.7-10.1-23.1-1.5-4.2-2.7-7.6-2.7-7.7zM97.2 430c-.5 2-1.1 2.4-3 2.1-2.2-.2-2.5-.7-3-4.8-.6-5.3-2.1-10.1-4.4-14.7-2.9-5.8-12.3-17.3-18.9-23.3l-6.6-5.9-2.9 6.9c-1.6 3.8-5.4 11.9-8.5 18.1-3.9 7.9-5.8 12.8-6.2 16.4-.6 4.8-.5 5.2 1.8 7.1 3.1 2.5 2.5 5-1.2 5-5.9 0-8.6-6.2-6.5-14.7.6-2.2 4.6-11.5 9-20.8 5.1-10.6 8.2-18.4 8.6-21.2.3-2.5 1.4-5.4 2.6-6.8 1.9-2.3 3.3-5.9 12.2-30.1 4.8-13.1 15.6-44.3 21.6-62.2 4.3-12.8 6-15.5 8.4-13.1 1.1 1.1 1.1 2-.1 6.4-1.8 6.6-24.6 72.7-27.9 80.7-1.1 2.7.3 1.7 3.4-2.3 1.6-2.1 9.9-12.2 18.4-22.5 8.6-10.3 17.4-20.8 19.6-23.5 2.2-2.7 4.2-5.1 4.5-5.3.3-.2 2.7-3.2 5.3-6.5 5.4-6.9 7.6-8.4 9.6-6.8 2.1 1.8 1.4 3.2-5 10.8-3.5 4.1-8.4 10-11.1 13.2-2.7 3.2-7.2 8.6-10.1 12-2.9 3.5-6 7.3-7 8.6-1 1.3-5.9 7.3-11.1 13.4-5.2 6.1-10 11.8-10.7 12.7-.7.9-3.6 4.4-6.3 7.6-2.7 3.2-5.7 7-6.6 8.4l-1.6 2.5 7.8 7.2c4.3 4 9.9 9.9 12.5 13.1C92 408 98.7 424.1 97.2 430zm267.1-173.3c.9 0 2.4.8 3.4 1.8.8.8 1.3 2.1 1.6 3.6 1.8 11.2-10.9 39.2-26.6 56.4-4 4.4-6 6-7.4 5.8-3.4-.5-2.6-3.3 2.7-9.3 11.7-13.1 18.3-24.7 24-42.1 1.2-3.6 2.2-7.3 2.2-8.2 0-1.7 0-1.7-3.3 0-10.8 5.6-39.6 36.1-54.8 58.1-14.1 20.4-21.7 39.6-21.1 53 .3 6.7.4 6.8 4.4 10.6 5.7 5.3 11.6 6.7 20.1 4.5 3.4-.8 8.9-3.1 12.5-5 3.6-2 6.6-3.5 6.9-3.5.3 0 1.1.6 1.9 1.4 2.2 2.2.4 4.2-7.8 8.1-16.7 8.1-25.2 8.3-35.2.7-6.4-4.9-8.4-8.1-8.9-15.3-1.9-23.3 18.3-59 54.2-96 7.5-7.7 13.8-13.6 18.9-17.8 5.6-4.4 9.8-6.8 12.3-6.8zm-3.6 89.6c-.6.3-.2-.8.9-2.5 1.8-2.9 4.2-4.2 4.2-2.4.1.7-3.1 3.8-5.1 4.9zm10.4-3.9c.2 0-.3.9-1.1 2s-2.4 3.4-3.6 5.2c-3.4 5.1-15.7 15.1-15.7 12.7.1-.6 19.8-19.9 20.4-19.9zm-11.5-13.3c-4.2-.4-5.7.5-9.5 5.9-5.1 7.2-14.2 24.8-15.4 29.7-1 3.9-1.4 4.3-9.2 9-11.4 6.8-26.4 13.5-28.6 12.9-1-.3-3.2-1.7-4.8-3.2-2.8-2.6-2.9-2.9-2.9-9.9 0-5.3.6-9 2.3-14 4.6-13.6 15.6-32.6 27.6-47.6 6.8-8.6 25.1-28 32.4-34.5l6.4-5.7-1.7 4.8c-5.2 14.6-11.7 25.1-23.5 37.9-5 5.4-5.6 8.8-2 12.4 2.7 2.7 6.5 2.8 9.6.4 2.9-2.3 14.2-15.7 16.3-19.4l1.6-2.9 1.5 3.4c1.9 4.2 6.8 8.1 10.3 8.1 3.4 0 6.7-2.1 13.5-8.4 8.8-8.2 10.3-12.8 5.5-17.5-2.9-2.9-2.8-2.9-12.7-.7-3.3.7-5.5 2.1-9.7 6l-5.4 5 2.7-5.3c1.5-3 4.2-9.7 6.2-15l3.5-9.7 10.6.5c5.8.3 13.2.5 16.3.5h5.7l-.9 2.5c-.5 1.3-1.7 3.3-2.6 4.2-.9 1-2.4 3.7-3.2 6.2-1.5 4.6-8.6 20.9-12.6 28.8-1.3 2.6-3.5 6-5.1 7.8-2.4 2.7-3.8 3.3-9.9 4.5-3.8.8-7.7 1.9-8.4 2.5-.8.6-2.6 1-3.9.8zm-37 51.6c-.7 1.1-6.3 4-9.3 4.8-1.2.3.4-.8 3.6-2.5 6.5-3.5 6.5-3.5 5.7-2.3zm40.6-74.9c0-.8 1.9-3.4 4.2-5.6 7.5-7.4 17.9-10.3 20-5.7 1.3 2.8.1 4.4-8.6 12.3-4.4 3.9-7.5 6.1-8.9 6.1-2.3 0-6.7-4.6-6.7-7.1zm-28.6-32.4c-1.2 1.3-5.3 5.6-9.2 9.6-23.1 23.7-43.9 56.6-48.8 76.8-3.3 13.5-2.3 25.6 2.4 30.8.8.9 1 1.7.5 2.1-1.4.9-13.5 3.3-23.3 4.6-9.8 1.3-35 1.5-39.7.4-1.5-.4-2.3-.7-1.7-.8.5 0 3.3-1.5 6.2-3.3l5.3-3.2 3.3 1.8c4.2 2.3 5.9 2.3 10.4-.2 4-2.2 11.7-11.7 14.5-17.9 1.9-4.1 3-3.1 2.5 2.2-.2 2.1-.8 3-2.1 3.3-4.6.8-7.2 6.5-4.9 10.8 2.7 5 13.2 3.3 18.2-2.9 5.5-6.9 3.7-21.1-4.5-35.9-2.9-5.3-5.6-7.5-9.1-7.5-2.6 0-6.2 3.3-6.8 6.2-.6 2.8-2.2 3.8-2.2 1.4 0-.7-.9-2.2-2-3.2-2.5-2.4-7.2-2.3-11.1 0-4.6 2.9-19.6 19.2-24.7 27-2.5 3.7-4.7 6.7-4.9 6.5-.2-.2-.9-3.6-1.6-7.5-2.7-15.6-6.3-20.4-13-17.6-3.5 1.5-4.4 2.5-10.8 13.4l-4.6 7.9-.4-6c-.4-5.2-.8-6.3-2.9-8.2-3.9-3.3-10.5-2.4-14 1.9-1.1 1.3-1.3 1.2-2.8-1.2-3.5-5.8-7.9-5.7-13.4.4-3.5 3.8-6.1 4.5-6.1 1.6 0-2.2-5-6.5-7.6-6.5-2.9 0-10.5-5.9-19.5-15.1l-6.2-6.3 2.8-2.9c1.5-1.6 4.3-4.9 6.2-7.4 4-5.3 20.6-25.3 22-26.6.5-.5 2.4-2.7 4-4.8 3.9-5.1 4.2-9.2.6-12.2-2.9-2.5-4.6-2.6-7.8-.5-2.1 1.3-20.2 22.3-27.7 32-5.4 7-9.4 10.8-10.4 9.8-1.7-1.7-1.1-4.5 3.4-16.9 2.4-6.6 6.3-17.9 8.5-25l4.1-13h231l-2.1 2.1zM235 383.8l4.1-4.5c4.5-4.9 5.9-7.8 10.6-21.4 4.1-11.8 5.1-12.4 9.2-6 5.2 8.3 8.2 16.7 8.2 23.7.1 7.5-1.3 10.3-6.1 12.6-4.3 2-7 1.5-7.3-1.4-.2-2.1.2-2.6 2.9-3.5 5.6-1.8 6.4-6.8 2.7-16.7-2.8-7.4-3.5-8.3-4.4-5.1-2.1 8.5-12.1 24.4-16.7 27-3.4 1.8-6.3 1-7.9-2.3l-1.5-2.9-4.2 3.2c-5.8 4.4-14.3 7.8-16.6 6.6-3.9-2.1-3-6.5 3.3-15.5 7.1-10.3 18-22 23.7-25.5 8.1-5 9.4 5 2.5 19.6-1.5 3.2-2.7 7.2-2.7 8.9l.2 3.2zm-32.7 11.8c-2 .4-2.6-.4-1.9-2.3.6-1.5.7-1.5 1.9.2 1.3 1.7 1.3 1.9 0 2.1zM87.6 372.8l-9.1-8.8 3.6-3.9c2-2.2 5.1-5.9 7.1-8.4 3.4-4.3 7.8-9.4 8.2-9.4.1 0 3.7 3.4 7.8 7.5 4.2 4.1 8.9 8.4 10.4 9.6l2.7 2.1-9.9 10c-5.5 5.5-10.3 10-10.8 10s-5-3.9-10-8.7zM94 389c-1 1.8-2.4 4.9-3 7l-1.1 3.7-1.3-2.4C87.1 394.5 71.2 378 70 378c-1.8 0-.8-2.3 2.8-6.5l3.7-4.3 8.6 8.2c4.7 4.6 9.1 8.7 9.7 9.3.9.8.8 1.6-.8 4.3zm-6.2-57.9c0 .6-1 2.1-2.3 3.3-1.2 1.2-2.1 1.5-1.8.8 1.9-5.3 2.4-6.2 3.2-5.8.5.3.9 1.1.9 1.7zm31.1 68.7c-1-.3-1.7-1.3-1.7-2.3 0-2.3-.4-2.2-4.5 1-3.6 2.8-9.6 5.4-12.7 5.4-2.7 0-5.1-2.6-5.1-5.6 0-3.9 4.5-11 13.1-20.6 8.5-9.5 14.2-13.6 17.8-12.7 3.6.9 4.3 3.8 2.6 10.4-2.8 10.6-2.8 10.7 1.5 6.2 2.2-2.3 6.6-7 10-10.7 5.2-5.6 6.3-6.5 7.6-5.6 1.3.8 1.5 2.2 1.3 8.8l-.2 7.8 4.4-6.2c6.2-8.6 11.3-11.5 14.2-8 1.3 1.6 1.3 7.5 0 13-1.2 5.3-1.2 7.9.1 7.9 2 0 9.4-8.9 14.6-17.6 7.9-13.2 9-14.1 11.6-9.1 2.3 4.4 4.9 15.8 4.9 21.5 0 5.8-2.3 11.6-5.1 12.7-4.4 1.8-6.5 2-7.9 1-2.3-1.7-1.2-4.3 2.1-5.1 1.6-.4 3.3-1.6 3.9-2.7 1.1-2.1.6-14-.8-17.7-.8-2.2-.8-2.2-2.7 1.3-3 5.7-11.5 16.5-14.8 18.8-4.6 3.1-7 3.4-9.9 1.1-2.4-1.9-2.5-2.1-2-8.7.3-3.7.8-7.7 1.1-9 .5-1.9 0-1.6-3 1.8-2 2.2-3.6 4.3-3.6 4.7-.1 1.3-8.5 13-9.8 13.5-.7.3-1.8 0-2.5-.6-1.1-.9-1.2-2.6-.7-9.9l.6-8.8-2.5 2.5c-1.4 1.4-3.9 4.1-5.5 6.1-1.6 1.9-5.6 6.3-8.7 9.6-4.7 5-6.3 6.2-7.7 5.8zm62.4-9.5l2.4-3.2c4.9-6.6 4.8-6.6 4.8-2.9 0 2.1-.7 2.9-3.6 4.4l-3.6 1.7zm154.3 16c-30.9 16.4-59.7 23.9-94.9 24.9-32.5.9-59.7-4.2-89.1-16.6-10.1-4.3-25.5-12.2-25.5-13.1 0-.6 8.1-10.3 9.8-11.7 2-1.6 2.2-1.4 2.3 2.4 0 4.6 2.3 7.1 6.6 7.1 3.5 0 5.1-1.2 9.1-7.3l2.2-3.3 1.1 3c2.5 6.8 10.1 8.8 16.5 4.5 4.3-2.9 5.5-2.8 6.7.5 1.8 5.3 6.4 6.7 13.5 3.8 3-1.2 4.5-1.3 9.6-.3 21.5 3.8 54.4 2.5 76-3.1l5.2-1.3 4.5 2.8c5.3 3.3 13.6 4.3 21.6 2.6 6.3-1.3 20.8-8.6 23.1-11.5 3.8-4.8-.1-11.6-6.1-10.6-1.7.3-2.9.4-2.7.2.2-.2 2.4-1.7 4.9-3.3l4.5-3 2.7 3.2c2.5 3 3 3.2 7.9 3.1 4.4 0 6.2-.6 11.1-3.2 4.6-2.5 6.3-3 8.3-2.5 3.3.9 7.1-.3 14-4.5 5.7-3.5 5.8-3.5 6.4-1.6.5 1.6-.6 3.1-6.2 8.5-5.9 5.7-7.1 6.5-9.3 6-4.1-.8-6.6.8-10 6.5-4 6.4-8.2 9.5-23.8 17.8zm53.8-32c1.7 1.7 7.1 1.1 11.3-1.1 4.8-2.6 6.2-2.8 6.2-1 0 .7 1.2 3.9 2.7 7 3.5 7.4 4.5 13 3.4 19.6-1.2 7.9-5.5 15.9-11.8 22.3-10.1 10-20.5 13.5-29.2 9.7-9.8-4.3-10.3-17.3-1.4-33.5 1.9-3.4 3.4-7.4 3.4-8.9 0-2.3.9-3.5 4.9-7.1 8.3-7.5 9.3-8.1 10.5-7zm48.2-55.8c.9.4 1.4 1.4 1.2 2.6-.3 1.9-1.8 2.3-25 7-13.6 2.7-25 5.2-25.2 5.4-.2.2-3.3 5-6.8 10.6s-7.9 12-9.8 14.1c-1.9 2.1-3.2 4.1-3 4.4.5.6 8.6-4.7 17.6-11.5 3.7-2.8 7.1-5.2 7.4-5.2.3 0 2.2-1.3 4.1-2.8 3.7-2.9 7.3-3.2 7.8-.6.1.8-.9 3.2-2.3 5.3-3.8 5.8-8.7 15.7-8 16.4.8.8 3.9-1 8.4-4.6 3.5-2.8 4.9-5.1 9.2-14.9 1.5-3.4 2.3-4.2 4.1-4.2 3.4 0 3.7 2.3 1 7.8-2.9 5.9-3.9 14.4-2.3 19.4.6 1.9 2.5 6.4 4.3 10 2.9 6 3.2 7.1 3.2 15.2 0 14.4-4.4 24.8-15.4 35.8-14.1 14.2-31.5 17.3-44.9 8.1-10.5-7.2-11.4-25-2.1-42.3 4.4-8.1 6.1-9.7 8.3-7.6 1.3 1.3 1.1 2.1-2.6 9.4-8.6 17-8.9 27-1.1 34.8 3.2 3.2 4.4 3.7 8.8 4.3 12.2 1.5 19.6-1.3 30-11.5 12.7-12.4 17-31 10.2-43.9-1.5-2.9-3.3-7.7-3.9-10.7-.6-2.9-1.2-5.4-1.4-5.6-.1-.2-1.6.7-3.2 1.8-6.3 4.6-13.3 6.5-15.7 4.1-1.7-1.7-1.3-7.5.7-11.4 1-2 1.6-3.6 1.3-3.6-.3 0-4.6 3-9.6 6.6-10.6 7.6-14.6 9.3-18.5 7.6-2.3-1-2.9-.9-6.1 1.2-6.7 4.4-13.8 6.3-16.7 4.4-2-1.4-3.2-4.8-2.6-7.6 1-4.9 6.7-16.8 12.2-25.3 5.4-8.4 7.2-9.8 9.5-7 .9 1.1.8 1.9-.6 3.8-4.6 6.5-14.4 24.5-15 27.7-.7 3.3.5 3.6 5.6 1.5 7.4-3 14.5-9.3 20.8-18.1 3.4-4.7 6.8-10 7.7-11.7l1.5-3-5.2.7c-8.1 1.1-8.5 1-9.6-.7-1.5-2.5.7-3.6 10.6-5.4l8.6-1.6 6.2-13.1c3.5-7.2 7-14.9 7.9-17.1.9-2.2 2.5-6.2 3.6-8.9 2.3-5.8 4.2-8.9 5.3-8.9.5 0 1.4.6 2.2 1.4.8.8 1.4 1.5 1.4 1.7 0 .9-12.2 28.5-15.7 35.5-3.7 7.4-3.8 7.9-2 7.5 11.8-2.6 42.3-7.8 43.6-7.3zm-22.8 14.7c-.2.3-1.2 2.1-2.4 4l-2.1 3.3-2.1-2.2c-3.3-3.5-6.4-2.9-14 2.6-3.7 2.6-7 5-7.6 5.3-.5.3.2-1.7 1.6-4.5l2.6-5.1 10.5-1.9c12.2-2.2 13.9-2.4 13.5-1.5zm25.2-53.7c-6.9 21.2-13.5 35.9-16.6 36.6-6.3 1.5-23.2 4.7-23.4 4.4-.2-.2 2.3-6.2 5.5-13.3 3.2-7.1 5.9-13.3 5.9-13.8 0-.4.8-2.6 1.8-4.7 2.7-6.1 2.2-8.7-2.3-11.2-1-.6-1.3-1.6-.8-3.6l.6-2.8h16c8.7 0 16 .1 16 .3-.1 0-1.3 3.7-2.7 8.1zm20.8-13.5c-1.2 1.2-6.4 1.4-44.1 1.4H374v-6.2l33-.3 33.1-.3 1.7-2.1c1.4-1.8 1.7-3.6 1.7-11.8V237h6.1c3.6 0 6.5-.4 7.1-1.1.8-.8 1.1-6.2 1.1-19 0-20.9.1-20.7-8.5-21.1l-5.3-.3-.4-9.2c-.4-8.4-.6-9.4-2.5-10.9-2-1.7-6.7-1.7-205.7-1.7-151.7 0-204.1.3-205.8 1-3 1.4-3.6 3.4-3.3 11.2.4 9.7.1 10.1-6.4 10.1-8.7 0-8.6-.2-8.6 20.9 0 12.7.3 18.2 1.1 19 .6.6 3.6 1.1 7 1.1 4.6 0 6.1.3 6.5 1.4.3.8.5 5.3.5 10.1 0 7.7.2 8.9 1.9 10.4 1.8 1.6 6 1.7 160.6 1.9l158.7.2h.1l-3 3.1-3 3.1h-236l-2.2-2.2c-1.4-1.4-3.2-2.2-5-2.2s-3.6.8-5 2.2l-2.2 2.2H49.5c-36.8 0-42-.2-43.2-1.4-1.2-1.2-1.4-6.9-1.4-48.4 0-31.6.2-44.4.8-47.4l.6-.7c14-1.5 453.3-1.4 454.8.1.8.8 1.1 12.7 1.1 48.1 0 41.7-.2 47.3-1.4 48.5zM417.6 83.8v-4.7c0-3.6-.4-5.1-1.7-6.2-1.6-1.4-1.8-1.3-3.1.1-.9 1-1.4 3.2-1.4 6.2v4.6h6.2zm-29.4.4c1.7 0 2.3-.8 3.6-4.5 2.4-6.7 2.4-6.7-3.2-6.7-2.7 0-4.9.3-4.9.7 0 .4.6 2.9 1.2 5.6 1.1 4.2 1.5 4.9 3.3 4.9zm39.7-.4c2.9 0 3.1-.2 3.1-2.7 0-1.7-.5-2.7-1.3-2.7-.7 0-1.5-.7-1.7-1.6-.4-1.5-.4-1.5-.5 0-.1.9-.7 1.6-1.4 1.6-.9 0-1.3.9-1.3 2.7-.1 2.5.2 2.7 3.1 2.7zm-25.8-.1c3.3-.4 4.3-4.1 1.3-4.9-1.1-.3-1.7-.8-1.4-1.3 1-1.7-1-.7-2.5 1.2-1.8 2.2-1.8 2.5-.8 4.2.5.6 2 .9 3.4.8z"/>
  <path d="M140.8 119.5c-2.1 0-2.2.3-2.2 5.3 0 5.1.1 5.3 2.2 5.3s2.2-.3 2.2-5.3c.1-5.1-.1-5.3-2.2-5.3zm8 0c-2.1 0-2.2.3-2.2 5.3 0 5.1.1 5.3 2.2 5.3s2.2-.3 2.2-5.3c.1-5.1 0-5.3-2.2-5.3zm8.6 0c-.9 0-1.9.3-2.2.6-.3.3-.6 2.8-.6 5.3 0 4.5.1 4.8 2.2 4.8s2.2-.3 2.2-5.3c.1-4.7-.1-5.4-1.6-5.4zm8.1 0c-.9 0-1.9.3-2.2.6-.3.3-.6 2.8-.6 5.3 0 4.5.1 4.8 2.2 4.8s2.2-.3 2.2-5.3c0-4.7-.2-5.4-1.6-5.4zm8 0c-.9 0-1.9.3-2.2.6-.3.3-.6 2.8-.6 5.3 0 4.5.1 4.8 2.2 4.8s2.2-.3 2.2-5.3c0-4.7-.2-5.4-1.6-5.4zm7.4 0c-2.1 0-2.2.3-2.2 5.3 0 5.1.1 5.3 2.2 5.3s2.2-.3 2.2-5.3c.1-5.1 0-5.3-2.2-5.3zm7 10.6c1.7 0 3.6-3.3 2.3-4.1-.6-.4-.8-1.9-.5-3.6.5-2.9-.7-4.1-2.4-2.4-1 1.1-.6 10.1.6 10.1zm-47.1 1.8c-2.1 0-2.2.3-2.2 5.3 0 5.1.1 5.3 2.2 5.3s2.2-.3 2.2-5.3c.1-5-.1-5.3-2.2-5.3zm8 0c-2.1 0-2.2.3-2.2 5.3 0 5.1.1 5.3 2.2 5.3s2.2-.3 2.2-5.3c.1-5 0-5.3-2.2-5.3zm8.6 0c-.9 0-1.9.3-2.2.6-.3.3-.6 2.8-.6 5.3 0 4.5.1 4.8 2.2 4.8s2.2-.3 2.2-5.3c.1-4.7-.1-5.4-1.6-5.4zm8.1 0c-.9 0-1.9.3-2.2.6-.3.3-.6 2.8-.6 5.3 0 4.5.1 4.8 2.2 4.8s2.2-.3 2.2-5.3c0-4.7-.2-5.4-1.6-5.4zm8 0c-.9 0-1.9.3-2.2.6-.3.3-.6 2.8-.6 5.3 0 4.5.1 4.8 2.2 4.8s2.2-.3 2.2-5.3c0-4.7-.2-5.4-1.6-5.4zm7.4 0c-2.1 0-2.2.3-2.2 5.3 0 5.1.1 5.3 2.2 5.3s2.2-.3 2.2-5.3c.1-5 0-5.3-2.2-5.3zm7.5 10.7c1.3 0 1.6-.5 1.2-2.7-.2-1.5 0-3.2.5-3.8.6-.8.6-1.6-.2-2.6-1.2-1.7-1.7-1.9-2.6-1-.3.3-.6 2.8-.6 5.4 0 4 .3 4.7 1.7 4.7zM235 359.3c-.3.1-3.1 2.8-6.1 6-5.5 6-13.7 16.5-15.6 19.9-.9 1.7-.8 1.8 1 .8 6.9-3.7 14.7-10.2 16.5-13.6 2.4-4.4 5.2-13.2 4.2-13.1zm-112.3 12.5c-.3 0-2.9 2.2-5.5 4.7-5.5 5.2-16 18.4-16 20.1 0 1.8 3.4.4 9.4-3.9 6.3-4.5 8-6.2 9.4-9.8 1.6-4.4 3.4-11.2 2.7-11.1z"/>
  <path d="M452.7 195.7h-9V179c0-2.8-2.2-5-5-5H30.4c-2.8 0-5 2.2-5 5v16.7H15c-2.8 0-5 2.2-5 5v31.7c0 2.8 2.2 5 5 5h10.5v19.3c0 2.8 2.2 5 5 5H347c3.9-4 11.5-11.1 16.1-10.7 6.3.7 11.1 10.7 11.1 10.7h64.6c2.8 0 5-2.2 5-5v-19.3h9c2.8 0 5-2.2 5-5v-31.7c-.1-2.8-2.3-5-5.1-5z" class="st5"/>
  <path d="M53 234.5l-7.7-9.3c-3.7-4.4-6.2-8.1-7.7-11.1s-2.2-5.9-2.2-8.7c0-5.1 1.9-9.2 5.8-12.4 3.9-3.2 9-4.8 15.3-4.8 2.4 0 4.7.3 6.9.9 2.1.6 4.4 1.6 6.6 2.9 1.2.7 2 1.4 2.7 2 .6.7 1 1.2 1 1.7 0 .3-.1.5-.3.8-.2.2-.5.3-.8.3-.4 0-1.1-.5-2.1-1.4-.5-.5-1-.9-1.3-1.2-1.4-1.2-3-2-4.7-2.7-1.8-.6-3.6-.9-5.4-.9-1.5 0-2.7.3-3.6.9-.9.6-1.3 1.5-1.3 2.6 0 1 .4 2.2 1.2 3.5.8 1.4 2.1 3.1 3.9 5.2l9.9 11.4c2.7 3.1 4.7 6.1 6 9 1.3 2.9 2 5.7 2 8.4 0 5.1-2 9.3-6 12.4-4 3.2-9.3 4.7-15.8 4.7-3.3 0-6.4-.5-9.4-1.6s-5.7-2.7-8.3-4.8c-1.3-1.1-2.2-1.9-2.6-2.4-.4-.5-.6-1-.6-1.4 0-.4.1-.7.4-1 .3-.3.5-.4.9-.4.5 0 1.3.5 2.4 1.5.7.6 1.2 1.1 1.7 1.5 2.6 2.1 4.8 3.6 6.8 4.5 2 .9 3.9 1.4 5.8 1.4 1.6 0 2.9-.3 3.8-1 .9-.7 1.4-1.6 1.4-2.8 0-.9-.3-2-1-3.2-.8-.9-2-2.5-3.7-4.5zm40.6 12.8c0-1.7.1-3.7.1-5.7 0-2.1.1-3.2.1-3.5v-36.2c0-.2 0-1.4-.1-3.4 0-2.1-.1-4-.1-5.7-2.8.1-5.6.2-8.5.3-2.8.1-4.3.2-4.4.2-.7 0-1.2-.1-1.5-.4-.3-.2-.4-.6-.4-1.2 0-.7.1-1.1.4-1.3.3-.2.9-.4 1.8-.4h48.6c.9 0 1.5.1 1.8.4.3.2.4.7.4 1.3 0 .6-.2.9-.5 1.2-.3.2-.8.4-1.5.4-.1 0-1.6-.1-4.4-.2-2.8-.1-5.6-.3-8.4-.3 0 1.7-.1 3.6-.1 5.7s-.1 3.2-.1 3.4v36.2c0 .2 0 1.4.1 3.5 0 2.1.1 4 .1 5.7H93.6zm69.2-.1l-3.7-7.8h-26.6c-.6 1.1-1.4 2.6-2.3 4.4-1.3 2.6-2.2 3.8-2.9 3.8-.4 0-.7-.2-1-.5-.3-.3-.4-.7-.4-1.1 0-.4 1.4-3 4.2-8 2.8-4.9 5.4-9.6 7.7-14l20.2-38.1 31.8 61.2h-27zm-5.2-10.6c-2-4.2-3.9-8.1-5.9-11.9-1.9-3.7-3.8-7.3-5.7-10.7l-12.2 22.6h23.8zm33.7 1.4v-38.7c0-.3 0-1.4-.1-3.5 0-2.1-.1-4-.1-5.8h42.3c.9 0 1.5.1 1.8.3.3.2.4.6.4 1.1 0 .6-.2 1-.5 1.2-.3.2-.9.3-1.7.3-.2 0-.9 0-2-.1-4.9-.2-9.8-.3-14.6-.3h-2.6v13.2h3.2c5.2 0 10.3-.1 15.6-.2 1-.1 1.6-.1 1.8-.1 1.1 0 1.8.1 2.1.4.3.2.5.7.5 1.3 0 .6-.1.9-.4 1.1-.3.2-.7.3-1.3.3h-1.9c-5.3-.1-10.4-.2-15.6-.2h-4V238c0 .1 0 1.2.1 3.2s.1 4 .1 6h-23.3c0-1.7.1-3.7.1-5.7.1-2.1.1-3.2.1-3.5zm50.2 0v-38.7c0-.3 0-1.4-.1-3.5 0-2.1-.1-4-.1-5.8h42.3c.9 0 1.5.1 1.8.3.3.2.4.6.4 1.1 0 .6-.2 1-.4 1.2-.3.2-.9.3-1.7.3-.2 0-.9 0-2-.1-4.9-.2-9.8-.3-14.6-.3h-2.6v13.2h3.2c5.2 0 10.3-.1 15.6-.2 1-.1 1.6-.1 1.8-.1 1.1 0 1.8.1 2.1.4.3.2.5.7.5 1.3 0 .6-.1.9-.4 1.1-.3.2-.7.3-1.3.3h-1.9c-5.3-.1-10.4-.2-15.6-.2h-4V238c0 .1 0 1.2.1 3.2s.1 4 .1 6h-23.3c0-1.7.1-3.7.1-5.7V238zm50.3 9.2c0-1.7.1-3.6.1-5.7s.1-3.2.1-3.5v-38.7c0-.3 0-1.5-.1-3.5 0-2-.1-3.9-.1-5.7h23.3c0 2-.1 4-.1 6-.1 2-.1 3.1-.1 3.2V238c0 .1 0 1.1.1 3.2s.1 4.1.1 6h-23.3zm33.5-27.3v13c0 2.6.1 5.3.2 8.1s.2 4.3.2 4.5c0 .9-.1 1.5-.4 1.8-.2.3-.7.5-1.3.5-.6 0-1.1-.1-1.4-.4-.3-.3-.4-.8-.4-1.5 0-1.5.1-4.4.3-8.6.2-4.2.3-7.6.3-10.4v-38.7c8.1 5.3 16.2 10.3 24.2 15.2 8 4.9 16 9.5 24 13.9v-12.9c0-2.6-.1-5.3-.2-8-.1-2.8-.2-4.3-.2-4.5 0-.9.1-1.6.4-1.9.2-.3.7-.5 1.3-.5.7 0 1.1.2 1.4.5.3.3.4.8.4 1.5 0 1.5-.1 4.4-.3 8.6-.2 4.2-.3 7.7-.3 10.4v38.7c-8.4-5.5-16.6-10.6-24.6-15.5-8-5-15.9-9.5-23.6-13.8zm77.3-28.9v55.2c.4.1.8.1 1.2.1h1.8c7.4 0 13.3-2.2 17.8-6.7 4.5-4.4 7.3-10.8 8.3-19.1h-22.2c-1 0-1.7-.1-2-.3-.3-.2-.4-.6-.4-1.1 0-.5.1-.8.3-1 .2-.2.8-.3 1.9-.3h25.1c-.5 9.7-3.2 17.3-8.3 22.8-5 5.5-11.8 8.2-20.2 8.2-4 0-7.7-.7-11.1-2.2-3.4-1.5-6.4-3.7-9.1-6.7-2.6-2.9-4.6-6.2-6-9.8-1.4-3.7-2.1-7.6-2.1-11.6 0-4.1.7-7.9 2.1-11.7 1.4-3.7 3.5-7 6.1-9.9 2.7-2.9 5.7-5.1 9-6.6s7-2.2 11-2.2c3.6 0 7 .6 10.2 1.9 3.1 1.3 6.2 3.2 9.1 5.8 1.2 1.1 2.2 2.1 2.9 3 .7.9 1 1.7 1 2.3 0 .3-.1.6-.3.9-.2.2-.5.4-.8.4-.5 0-1.2-.6-2.2-1.7-.6-.8-1.2-1.4-1.6-1.9-2.8-2.7-5.7-4.7-8.7-6.1-3.1-1.3-6.3-2-9.7-2h-1.1c-.5.2-1.2.2-2 .3z" class="st6"/>
  <text transform="matrix(1 0 0 .9 210.792 424.7)" class="st7 st8">
    inc.
  </text>
</svg>
